<?xml version="1.0" encoding="UTF-8"?>
<svg id="Layer_2" data-name="Layer 2" xmlns="http://www.w3.org/2000/svg" viewBox="0 0 299.33 299.33">
  <defs>
    <style>
      .cls-1 {
        fill: #f3f4f6;
      }

      .cls-2 {
        fill: #f6f6f6;
      }

      .cls-3 {
        fill: #f2f2f3;
      }

      .cls-4 {
        fill: #f2f0f1;
      }

      .cls-5 {
        fill: #676261;
      }

      .cls-6 {
        fill: #f0f0f0;
      }

      .cls-7 {
        fill: #f0f0f1;
      }

      .cls-8 {
        fill: #e9e9e9;
      }

      .cls-9 {
        fill: #e6eeeb;
      }

      .cls-10 {
        fill: #e6e7e9;
      }

      .cls-11 {
        fill: #f4f4f4;
      }

      .cls-12 {
        fill: #fcfcfc;
      }

      .cls-13 {
        fill: #edeef1;
      }

      .cls-14 {
        fill: #ededed;
      }

      .cls-15 {
        fill: #edecee;
      }

      .cls-16 {
        fill: #ecedec;
      }

      .cls-17 {
        fill: #fbfbfb;
      }

      .cls-18 {
        fill: #e5e5e5;
      }

      .cls-19 {
        fill: #e2e2e2;
      }

      .cls-20 {
        fill: #fcfefe;
      }

      .cls-21 {
        fill: #e4e5e6;
      }

      .cls-22 {
        fill: #7d7b79;
      }

      .cls-23 {
        fill: #919090;
      }

      .cls-24 {
        fill: #7d7d7d;
      }

      .cls-25 {
        fill: #6b6463;
      }

      .cls-26 {
        fill: #7e7e7e;
      }

      .cls-27 {
        fill: #7f7f7f;
      }

      .cls-28 {
        fill: #665c5b;
      }

      .cls-29 {
        fill: #818282;
      }

      .cls-30 {
        fill: #6c6c6c;
      }

      .cls-31 {
        fill: #6c6d6d;
      }

      .cls-32 {
        fill: #999;
      }

      .cls-33 {
        fill: #7c7b7b;
      }

      .cls-34 {
        fill: #989899;
      }

      .cls-35 {
        fill: #979897;
      }

      .cls-36 {
        fill: #979797;
      }

      .cls-37 {
        fill: #6c6968;
      }

      .cls-38 {
        fill: #7c7c7c;
      }

      .cls-39 {
        fill: #9f8782;
      }

      .cls-40 {
        fill: #9f9394;
      }

      .cls-41 {
        fill: #9f9f9f;
      }

      .cls-42 {
        fill: #929292;
      }

      .cls-43 {
        fill: #a09091;
      }

      .cls-44 {
        fill: #847e7c;
      }

      .cls-45 {
        fill: #939492;
      }

      .cls-46 {
        fill: #8a8a8a;
      }

      .cls-47 {
        fill: #b5b6b7;
      }

      .cls-48 {
        fill: #b5b5b5;
      }

      .cls-49 {
        fill: #b7b7b7;
      }

      .cls-50 {
        fill: #9d9d9e;
      }

      .cls-51 {
        fill: #a1a3a4;
      }

      .cls-52 {
        fill: #b9b9b9;
      }

      .cls-53 {
        fill: #b9babb;
      }

      .cls-54 {
        fill: #909090;
      }

      .cls-55 {
        fill: #908f8f;
      }

      .cls-56 {
        fill: #8f8f8f;
      }

      .cls-57 {
        fill: #c1c1c0;
      }

      .cls-58 {
        fill: #b6aeaf;
      }

      .cls-59 {
        fill: #b6b8b9;
      }

      .cls-60 {
        fill: #666;
      }

      .cls-61 {
        fill: #8d8686;
      }

      .cls-62 {
        fill: #8c8b8b;
      }

      .cls-63 {
        fill: #8c7f7e;
      }

      .cls-64 {
        fill: #8c8c8c;
      }

      .cls-65 {
        fill: #ced0ce;
      }

      .cls-66 {
        fill: #aca9a9;
      }

      .cls-67 {
        fill: #a6a6a6;
      }

      .cls-68 {
        fill: #a6a7a8;
      }

      .cls-69 {
        fill: #b1b1b1;
      }

      .cls-70 {
        fill: #aaabac;
      }

      .cls-71 {
        fill: #bcbdbe;
      }

      .cls-72 {
        fill: #a7a7a7;
      }

      .cls-73 {
        fill: #b0b1b3;
      }

      .cls-74 {
        fill: #b0afaf;
      }

      .cls-75 {
        fill: #aca3a3;
      }

      .cls-76 {
        fill: #d8d8d7;
      }

      .cls-77 {
        fill: #b2a9a9;
      }

      .cls-78 {
        fill: #a79898;
      }

      .cls-79 {
        fill: #a5a4a5;
      }

      .cls-80 {
        fill: #aaacad;
      }

      .cls-81 {
        fill: #bbbcbd;
      }

      .cls-82 {
        fill: #bfc0be;
      }

      .cls-83 {
        fill: #c0bdbe;
      }

      .cls-84 {
        fill: #ccccce;
      }

      .cls-85 {
        fill: #cacaca;
      }

      .cls-86 {
        fill: #c9cacc;
      }

      .cls-87 {
        fill: #c7c8ca;
      }

      .cls-88 {
        fill: #c7c8c9;
      }

      .cls-89 {
        fill: #c7c9c9;
      }

      .cls-90 {
        fill: #cbcbcb;
      }

      .cls-91 {
        fill: #cbcacc;
      }

      .cls-92 {
        fill: #d2c5c1;
      }

      .cls-93 {
        fill: #d1cdce;
      }

      .cls-94 {
        fill: #c3c4c4;
      }

      .cls-95 {
        fill: #c4c3c2;
      }

      .cls-96 {
        fill: #dcdddc;
      }

      .cls-97 {
        fill: #dbdcde;
      }

      .cls-98 {
        fill: #d3d0d0;
      }

      .cls-99 {
        fill: #d3d1d2;
      }

      .cls-100 {
        fill: #dadbdd;
      }

      .cls-101 {
        fill: #e20409;
      }

      .cls-102 {
        fill: #d9dadc;
      }

      .cls-103 {
        fill: #adadad;
      }

      .cls-104 {
        fill: #d7d4d3;
      }

      .cls-105 {
        fill: #c6c7c8;
      }

      .cls-106 {
        fill: #e1e1e3;
      }

      .cls-107 {
        fill: #e1e1e1;
      }

      .cls-108 {
        fill: #e0e1e2;
      }

      .cls-109 {
        fill: #e0e2e1;
      }

      .cls-110 {
        fill: #c8c7c7;
      }

      .cls-111 {
        fill: #dfddde;
      }

      .cls-112 {
        fill: #e30107;
      }

      .cls-113 {
        fill: #a8a8a8;
      }

      .cls-114 {
        fill: #434237;
      }

      .cls-115 {
        fill: #434644;
      }

      .cls-116 {
        fill: #43403f;
      }

      .cls-117 {
        fill: #413e3e;
      }

      .cls-118 {
        fill: #414141;
      }

      .cls-119 {
        fill: #3f3f3f;
      }

      .cls-120 {
        fill: #a3a3a3;
      }

      .cls-121 {
        fill: #9b9b9b;
      }

      .cls-122 {
        fill: #949494;
      }

      .cls-123 {
        fill: #a2a2a2;
      }

      .cls-124 {
        fill: #464545;
      }

      .cls-125 {
        fill: #534642;
      }

      .cls-126 {
        fill: #868687;
      }

      .cls-127 {
        fill: #898989;
      }

      .cls-128 {
        fill: #6e2c29;
      }

      .cls-129 {
        fill: #6d6969;
      }

      .cls-130 {
        fill: #888585;
      }

      .cls-131 {
        fill: #888787;
      }

      .cls-132 {
        fill: #868180;
      }

      .cls-133 {
        fill: #878786;
      }

      .cls-134 {
        fill: #9b9998;
      }

      .cls-135 {
        fill: #9b9494;
      }

      .cls-136 {
        fill: #9b9898;
      }

      .cls-137 {
        fill: #807f7f;
      }

      .cls-138 {
        fill: #808180;
      }

      .cls-139 {
        fill: #555150;
      }

      .cls-140 {
        fill: #554c4b;
      }

      .cls-141 {
        fill: #646464;
      }

      .cls-142 {
        fill: #554b4a;
      }

      .cls-143 {
        fill: #636262;
      }

      .cls-144 {
        fill: #634a46;
      }

      .cls-145 {
        fill: #626562;
      }

      .cls-146 {
        fill: #5c5757;
      }

      .cls-147 {
        fill: #5b5b5b;
      }

      .cls-148 {
        fill: #595a59;
      }

      .cls-149 {
        fill: #595959;
      }

      .cls-150 {
        fill: #4a4a4a;
      }

      .cls-151 {
        fill: #4a4748;
      }

      .cls-152 {
        fill: #484647;
      }

      .cls-153 {
        fill: #5d3234;
      }

      .cls-154 {
        fill: #5c5d5c;
      }

      .cls-155 {
        fill: #3b3b3b;
      }

      .cls-156 {
        fill: #3a3939;
      }

      .cls-157 {
        fill: #3a4240;
      }

      .cls-158 {
        fill: #5a5859;
      }

      .cls-159 {
        fill: #585455;
      }

      .cls-160 {
        fill: #3c3d40;
      }

      .cls-161 {
        fill: #827d84;
      }

      .cls-162 {
        fill: #4c3738;
      }

      .cls-163 {
        fill: #4c4c4e;
      }

      .cls-164 {
        fill: #4b4a4a;
      }

      .cls-165 {
        fill: #494848;
      }

      .cls-166 {
        fill: #545754;
      }

      .cls-167 {
        fill: #777;
      }

      .cls-168 {
        fill: #616060;
      }

      .cls-169 {
        fill: #7a7979;
      }

      .cls-170 {
        fill: #4b4141;
      }

      .cls-171 {
        fill: #5e595b;
      }

      .cls-172 {
        fill: #615d5e;
      }

      .cls-173 {
        fill: #4f4d4d;
      }

      .cls-174 {
        fill: #787876;
      }

      .cls-175 {
        fill: #525251;
      }

      .cls-176 {
        fill: #525351;
      }

      .cls-177 {
        fill: #837d7f;
      }

      .cls-178 {
        fill: #514341;
      }

      .cls-179 {
        fill: #504e4e;
      }

      .cls-180 {
        fill: #757576;
      }

      .cls-181 {
        fill: #7b7b7b;
      }

      .cls-182 {
        fill: #4d4c4c;
      }

      .cls-183 {
        fill: #4d4949;
      }

      .cls-184 {
        fill: #4f4345;
      }

      .cls-185 {
        fill: #7b7878;
      }

      .cls-186 {
        fill: #553b3c;
      }
    </style>
  </defs>
  <g id="Layer_1-2" data-name="Layer 1">
    <g>
      <path class="cls-112" d="M298.75,299.24c-98.22,0-196.45-.02-294.67,.1-3.41,0-4.08-.67-4.08-4.08C.12,197.03,.1,98.81,.1,.58,1.82-.34,3.68,.11,5.47,.11c95.89-.03,191.78-.03,287.66-.01,6.83,0,6.1-.72,6.1,6.11,.01,95.89,.01,191.78-.01,287.66,0,1.79,.46,3.65-.47,5.37Z"/>
      <path class="cls-127" d="M84.73,101.11c31.04,2.54,62.14,1.78,93.22,1.6,11.39-.06,22.8-.23,34.16-1.47-1.14,5.03-4.69,7.05-10.57,8.45-11.9,2.85-23.9,1.53-35.85,1.86-2.33,.06-4.59,.4-6.84,.92-19.02,.18-38.05,.12-57.07,.04-4.26-1.11-8.88-.68-12.85-3.09-3.17-1.92-5.76-4.04-4.19-8.31Z"/>
      <path class="cls-110" d="M204.83,130.16c-37-.98-74.01-1.03-111.01-.02-1.26,.59-2.62,.4-3.92,.32-1.33-.08-3.29,.74-3.5-1.59-.16-1.78,.68-3.2,2.37-4,.61-.29,1.28-.34,1.93-.42,6.99-.92,13.81-2.68,20.95-3.03,21.5-1.06,43.01-.73,64.51-.95,5.77-.06,11.57,.24,17.26,.52,5.49,.28,11.25,1.97,16.6,4.06,1.55,.61,3.07,1.58,2.71,3.65-.42,2.45-2.46,1.7-3.99,1.77-1.31,.06-2.65,.22-3.93-.31Z"/>
      <path class="cls-167" d="M167.15,35.27c5.17-2.21,10.41-.92,15.51,.03,26.89,5.02,51.37,15,70.82,35.09,2.87,2.96,5.61,6.04,7.49,9.78,.6,1.14,.69,2.52,1.57,3.52,2.65,3.02,1.94,5.9-.33,8.74-.43,.25-.89,.37-1.38,.37-3.18-1.23-3.04-4.74-4.79-6.95-1.43-4.07-3.26-7.85-7.09-10.27-3.08-2.05-4.28-6.1-7.99-7.47-11.02-10.96-24.68-17.28-39.1-22.23-3.89-1.34-7.89-2.33-11.67-4-5.3-3.67-11.36-4-17.51-3.97-2.22-.08-4.5-.04-5.52-2.63Z"/>
      <path class="cls-169" d="M34.81,84.85c5.71-10.88,14.19-19.26,24.04-26.34,13.55-9.73,28.47-16.5,44.75-20.23,1.4,.41,3.43-.55,4.02,1.54,.37,1.31-1.06,1.74-1.88,2.42-.41,.24-.85,.41-1.31,.53-2.83,.51-5.81,.63-7.94,3.02-10.2,4.31-20.41,8.59-29.54,15.04-7.23,5.11-13.64,11.01-18.97,18.1-2.79,3.25-5.14,6.81-7.32,10.49-1.39,1.95-1.6,4.24-2.02,6.5-.31,1.65-.51,3.75-3.2,3.09-1.15-4.68-2.6-9.34-.65-14.16Z"/>
      <path class="cls-118" d="M75.78,183.74c-17.16-8.18-31.68-19.34-40.98-36.39-.15-1.18-1.11-2.02-1.38-3.14-.37-1.49-1.73-3.31,.47-4.28,1.94-.85,2.91,.81,3.79,2.25,.58,.95,.92,2.18,2.38,2.21,3.28,1.07,4.12,4.7,6.76,6.44,6.16,5.79,11.84,12.11,18.68,17.16,.92,.68,1.83,1.34,2.87,1.83,2.86,2.7,6.88,3.9,9.33,7.15,.92,2.7,.51,5.02-1.93,6.76Z"/>
      <path class="cls-169" d="M252.02,264.52c-9.59,1.75-19.25,.98-28.89,.66-2.39-1.3-5.17-.86-7.65-1.68-3.65-1.21-7.18-2.61-7.06-7.44,.99-1.64,2.18-.63,3.37-.3,3.98,1.11,8,.11,12,.18,1.03,0,2.06,0,3.09,0,5.24,0,10.48,0,15.71,0,2.64,.32,4.85-.74,6.9-2.26,1.73-.68,3.55-.64,5.34-.41,2.24,.29,5.21,.04,6.08,2.37,.85,2.28-.48,4.73-2.41,6.49-1.84,1.68-4.36,1.5-6.48,2.39Z"/>
      <path class="cls-17" d="M69.68,92.34c1.37,1.6,2.75,3.21,4.12,4.81,2.83,2.01,.44,3.66-.33,5.47-.78,1.84-3.79,3.11-2.37,5.38,1.34,2.12,4.12,1.62,6.44,1.57,.81-.03,1.6-.14,2.41-.01,5.69,1.19,11.47,1.17,17.22,1.53,1.95,.12,3.95-.02,5.66,1.21-.91,2.87-3.38,2.14-5.39,2.24-6.92,.33-13.87-.52-20.77,.58-9.1,.17-18.11-.11-26.03-5.53-.73-.46-1.34-1.02-1.73-1.8-1.22-3.55,.3-5.89,3.25-7.78,4.26-2.73,8.79-4.99,13.02-7.77,1.51-.74,3.02-.9,4.49,.1Z"/>
      <path class="cls-17" d="M226.87,95.89c.78-1.44,1.51-2.91,3.01-3.78,.39-.32,.83-.52,1.32-.6,6.07,1.39,11.38,4.44,16.66,7.57,1.8,1.3,3.38,2.73,3.16,5.25-.37,3.17-2.5,5.01-4.96,6.61-8.73,4.6-18.23,4.21-27.67,4.22-7.65-1.22-15.36-.26-23.03-.63-1.99-.09-4.45,.62-5.32-2.25,3.67-2.22,7.76-1.54,11.73-1.7,6.05,.03,12.11,.21,18.08-.99,1.14-.07,2.3,.04,3.46-.04,6.47-.46,7.28-1.89,4.46-7.69-.91-1.87-2.41-3.72-.9-5.98Z"/>
      <path class="cls-119" d="M266.99,141.15c-6.85,17.06-19.6,28.59-35.11,37.54-1.54,.2-1.72-1.34-1.25-1.73,2.29-1.95,1.39-4.36,1.33-6.67,.94-1.84,2.6-2.8,4.36-3.66,6.42-2.28,10.03-7.83,14.27-12.56,4.37-4.87,7.44-10.85,12.68-15,1.03-.81,2.22-1.87,3.53-1.05,1.17,.73,.63,2.04,.19,3.13Z"/>
      <path class="cls-182" d="M232.94,170.61c.64,4.11,2.72-.34,4.23,1.11-.77,1.67-2.37,2.84-3.98,4-1.03,.73-2.45,1.29-1.32,2.98-3.98,3.42-8.81,5.23-13.57,7.19-1.6-2.88-3.42-.93-4.98-.08-4.56,2.47-9.74,3.16-14.41,5.27-9.75,3.06-19.71,5.16-29.81,6.6-3.04-.2-5.06-1.25-4.12-4.84,4.23-.57,8.43-1.28,12.54-2.47,17.44-3.6,34.23-8.95,49.52-18.36,1.75-1.08,3.51-2.75,5.9-1.39Z"/>
      <path class="cls-69" d="M204.83,130.16c.16-.03,.34-.03,.49-.08,2.08-.72,5.91,1.16,6.06-1.42,.15-2.6-3.79-2.93-6.25-3.58-9.87-2.6-19.97-3.03-30.11-3.03-14.75,0-29.52-.49-44.24,.15-13.14,.57-26.4,.42-39.35,3.57-2.26,.55-3.62,1.14-3.78,3.93,2.02,.14,4.1,.29,6.17,.44-2.61,1.2-5.41,.81-8.14,.98-3.15-3.26-2.63-6.33,1.48-8.79,1.41-.84,3.07-.99,4.57-1.59,2.68-.1,5.32-.54,7.94-1.12,33.44-.11,66.88-.1,100.32,0,3.72,.76,7.5,1.21,11.16,2.3,5.24,4.41,5.48,6.21,1.25,9.24-2.55-.16-5.13-.02-7.57-.99Z"/>
      <path class="cls-15" d="M241.98,229.42c5.84-.2,11.74-.43,16.73,3.34,1.45,1.1,3.37,2.17,3.23,4.53,0,.81-.43,1.32-1.14,1.64-.48,.08-.94,0-1.39-.17-3.66-2.59-7.73-1.84-11.76-1.43-.5,0-.97-.1-1.44-.26-4.76-1.84-9.62-1.14-14.47-.53-.46,.13-.94,.18-1.42,.17-6.5-1.28-12.65,.77-18.79,2.3-2.17,.54-3.71,1.33-4.28-1.59,1.19-3.75,3.92-5.9,7.57-6.84,4.01-1.03,8.11-1.58,12.28-1.12,4.96,.73,9.92,.12,14.89-.03Z"/>
      <path class="cls-164" d="M266.99,141.15c-.23-1.47,.25-3.3-2.35-1.17-5.2,4.24-8.31,10.13-12.73,14.95-3.46,3.78-7.01,7.5-10.75,11.01-1,.94-2.14,2.76-4.16,1.71-.56-3.65,2.44-5.11,4.48-7.04,5.51-5.2,10.59-10.71,14.18-17.45,2.48-3.96,4.98-7.91,6.26-12.47,2.9-5.99,.87-12.36,1.47-18.52,.11-1.63-.22-3.34,.88-4.78,2.66-1.09,3.15,1.17,3.3,2.66,.39,3.91,2.65,6.87,4.47,10.06,.38,7.52-1.53,14.48-5.08,21.05Z"/>
      <path class="cls-165" d="M88.79,62.35c-7.04,5.69-13.77,11.66-18.22,19.74-3.86-.66-3.53-3.73-3.51-6.42,.02-2.93,1.2-5.74,1.3-8.68,.21-2.32,1.58-3.92,3.41-5.1,4.64-3,9.04-6.41,14.19-8.58,2.55-.77,4.72-2.51,7.38-3.04,1.05,0,1.95,.3,2.54,1.25,.15,.48,.15,.96-.01,1.44-.95,1.83-2.75,2.6-4.42,3.53-3.16,.92-3.7,3.03-2.67,5.86Z"/>
      <path class="cls-173" d="M75.78,183.74c.34-2.02,.68-4.03,1.02-6.05,1.5-1.34,3.2-.89,4.64-.16,13.81,7.05,28.77,10.41,43.73,13.77,1.41,.44,2.82,.93,4.32,1.04,1.45,.82,3.34,.83,4.39,2.39-.46,2.35-2.24,2.22-4,2.14-3.02,.23-5.93-.97-8.95-.7-7.42-2.27-15.58-1.97-22.37-6.44,.7,1.02,3.03,1.14,1.76,3.22-.05,.08-.27,.1-.4,.08-.16-.03-.3-.13-.44-.2-8.34-1.87-16.28-4.79-23.69-9.09Z"/>
      <path class="cls-23" d="M69.68,92.34c-1.2,.31-2.4,.62-3.6,.93-4.92,2.24-9.53,5.01-14.11,7.89-2.63,1.65-3.38,3.26-2.08,5.95,.33,.32,.65,.65,.98,.97-2.41,3.31-4.1,.77-5.39-.95-2.48-3.28-1.96-7.14-1.36-10.92,0-2.04,.56-3.83,2.28-5.11,.79-.37,1.48-.17,2.08,.41,.81,2.01,1.85,3.14,4.23,1.73,1.48-.88,3.24-1.31,4.95-1.7,2.03-.31,3.79-1.13,5.21-2.64-7-1.25-9.16-2.75-9.12-6.31,.04-3.45,2.61-6.02,6.51-6.5,2.34,2.49,3.53,5.81,7.44,7.15,3.11,1.07,1.14,4.89,1.54,7.47,.15,.54,.3,1.08,.45,1.62Z"/>
      <path class="cls-143" d="M212.4,131.15c2.96-3.31,1.01-5.71-1.49-8,.19-.28,.49-.69,.7-.62,7.68,2.61,13.98-2.39,20.93-3.77,2.36-.74,4.02,.26,5.34,2.14,1.29,3,.9,6.09,.46,9.18-1.55,3.02-3.24,5.89-7.13,6.21-.4-.29-.79-.66-.83-1.14-.5-5.79-.91-6.06-6.5-4.38-1.94,.59-3.65,2.3-5.94,1.3-1.89-.06-3.78-.04-5.53-.93Z"/>
      <path class="cls-96" d="M227.01,152.68l1.86-3.92c1.64-2.32,3.57-4.35,1.69-7.71-.92-1.64,.94-3.25,2.31-4.47,3.7-3.01,7.8-5.41,11.76-8.03,2.42-1.6,4.73-2.59,6.91,.13,1.87,2.33,.94,6.78-1.68,8.82-3.97-4.21-4.01-4.21-9.88,.46,1.46,1.33,3.41,2.45,2,4.9-6.03,5.39-9.6,12.14-11.91,19.88-1.7,5.71-7.92,10.14-12.34,9.99-1.12-1.93-.39-3.43,1.08-4.76,3.33-1.25,3.81-4.4,4.8-7.22,1.65-2.48,2.38-5.34,3.4-8.08Z"/>
      <path class="cls-141" d="M91.82,122.1c-7.18,2.98-7.68,3.72-6.13,9.01-1.18,.89-2.55,.96-3.95,.91-2.09,.79-4.09,.65-6.03-.49-3.64-2.13-6.97-2.36-9.58,1.63-.98,.46-1.86,.18-2.71-.36-3.18-3.13-3.01-7.07-2.66-11.07,5.47-3.33,11.21-1.43,16.58-.19,3.14,.72,5.65,2.11,8.72-.08,1.81-1.29,4.04-1.46,5.75,.64Z"/>
      <path class="cls-26" d="M120.81,262.95c-4.56,1.15-9.19,.29-13.79,.48-2.07,.08-3-.99-3.01-3.01-.02-9.09-.04-18.17-.07-27.26,0-.95,.41-1.55,1.43-1.6,1.72,1.07,1.75,2.78,1.73,4.51,.01,1.1,0,2.2,0,3.3,0,1.34,0,2.67,.01,4.01,.03,1.31,.22,2.61,.26,3.92,.86,2.48,1.34,5.01,.67,7.73-.41,.29,.95,.33,.33,.1-.3-.11-.28-.27,.09-.47,6.58-3.63,10.98-1.34,11.71,6.08,.18,.74,.52,1.44,.63,2.2Z"/>
      <path class="cls-137" d="M69.55,252.58c-5.57,.08-11.13,.16-16.7,.24-2.77-3.89,.73-3.65,2.72-3.75,5.41-.27,10.84-.12,16.26-.08,.55-.02,1.09,.05,1.62,.21,3.04,2.75,6.43,4,10.61,2.94,1.52-.39,3.28-.15,4.1,1.72,.33,2.89-.47,5.85,.52,8.7-4.14,2.01-8.51,.5-12.76,.8-2.48-.88-1.95-3.01-2.2-4.94-.33-2.6,.15-5.99-4.16-5.84Z"/>
      <path class="cls-156" d="M225.93,78.32c-3.29-4.91-7.85-8.67-11.85-12.93-.47-3.25-1.43-6.63,2.23-8.85,6.13,.86,9.96,5.11,13.79,9.36-.13,3.94-1.86,7.58-2.29,11.48-.09,.8-.87,1.38-1.87,.94Z"/>
      <path class="cls-49" d="M202.16,111.94c-3.93,.1-7.87,.19-11.8,.29-1.6,1.62-3.67,1.32-5.63,1.32-25.53,.03-51.05,.03-76.58,0-1.96,0-4.03,.3-5.63-1.31-7.92-.52-15.9,.44-23.77-1.16-4.66-2.42-3.62-6.43-2.9-10.35,.25-.49,.64-.83,1.16-1.03,.57,.18,1.15,.35,1.72,.53,.24,.23,.59,.43,.68,.71,3.03,9.16,10.75,9.35,18.42,9.65,.97,.04,1.99-.23,2.86,.45,19.57,0,39.13,.01,58.7,.02,6.07-1.05,12.19-.33,18.28-.45,7.43-.14,14.88,.28,22.27-.95,.63,.09,1.22,.31,1.76,.64,.58,.42,.73,.96,.46,1.63Z"/>
      <path class="cls-131" d="M257.9,261.4c.75-1.76,1.49-3.52,2.22-5.24-3.32-1.31-6.73-1.08-10-1.69-1.17-.15-2.3-.38-2.88-1.61-.65-1.93-.08-3.82,.17-5.73,1.13-2.78-1.02-6.02,1.18-8.64,.44-.3,.92-.38,1.44-.24,1.78,4.35,4.72,6.92,9.66,7.54,3.95,.49,3.56,4.09,3.68,7.04,.22,2.59,0,5.09-1.51,7.33-.42,.43-.84,.85-1.27,1.28-.91,.74-1.81,.87-2.7-.02Z"/>
      <path class="cls-168" d="M69.23,90.72c-.24-3.67-.5-6.67-5.67-7.12-3.18-.28-3.34-4.4-3.69-7.35,.82-5.4,5.32-10.05,9.79-10.13,.15,3.08,.25,6.11-.61,9.16-.69,2.43-.31,4.84,1.52,6.81-.45,2.88-.89,5.76-1.34,8.63Z"/>
      <path class="cls-62" d="M72.8,250.41c-5.71,.01-11.43,0-17.14,.06-1.52,.01-3.65-.53-2.81,2.36-.44,.23-.88,.46-1.32,.69-2.72,1.57-1.33,4.83-2.85,7.09-3.56-1.36-6.93-3.73-11-1.29-1.22,.73-1.92-.94-2.08-2.06-.25-1.78-.25-3.6-.64-5.37,.08-1.5-.36-3.08,.67-4.43,.46-.32,.97-.4,1.51-.27,4.11,2.32,8.51,.32,12.76,.84,6.63,.81,13.27-1.55,19.93-.09,1.45,.32,3.04,.37,2.96,2.48Z"/>
      <path class="cls-136" d="M201.17,111.03c-13.93,.01-27.86,.02-41.8,.04,1.7-1.46,3.76-.87,5.69-.97,11.6-.6,23.23,1.04,34.85-1.74,5.14-1.23,8.49-4.14,12.19-7.12,2-.38,4.01-.75,6.01-1.13,.03,5.88-4.41,10.4-10.69,10.98-2.09,.19-4.16-.46-6.25-.06Z"/>
      <path class="cls-171" d="M183.28,48.36c-5.51-1.23-10.58-3.61-15.56-6.14-2.02-1.03-4.11-2.47-2.7-5.42,3.1-.86,5.04,2.41,7.96,2.22,2.57,.74,5.35,.46,7.82,1.66,1.23,.76,2.45,1.56,3.58,2.47,5.15,3.1,11.07,4.44,16.36,7.22,.44,.29,.76,.68,.98,1.16-.18,4.83-3.37,3.23-5.43,2.1-4.16-2.28-8.59-3.73-13.02-5.27Z"/>
      <path class="cls-117" d="M272.07,120.1c-5.04-.32-5.17-4.51-6.09-7.93-.44-1.66,.29-3.58-1.01-5.1-1.01-.71-1.2-1.73-1.09-2.86,2.75-5.22,4.49-5.75,6.88-2.11,1.35,5.93,2.61,11.88,1.32,18Z"/>
      <path class="cls-33" d="M192.14,262.53c-4.45,2.05-9.09,.62-13.65,.79-1.69-1.55-2.29-3.72-3.24-5.7-.06-.76,.12-1.45,.57-2.07,5.16-1.9,10.45-2.52,15.89-1.41,.24,2.8-.42,5.64,.43,8.4Z"/>
      <path class="cls-91" d="M160.2,236.47c2.63-.81,4.38,1.11,6.34,2.17,2.76,1.49,5.39,3.23,8.61,3.63,.13,.22,.26,.45,.39,.68-.51,1.9-2.09,2.18-3.69,2.43-.55-.02-1.06-.17-1.55-.42-5.11-2.9-10.43-3.14-16.24-2.41-5.45,.69-11.15,1.59-16.6-.63-.67-.93-.44-1.98-.42-3,.88-1.97,2.67-1.52,4.28-1.64,5.39-.41,10.82-.16,16.18-1.07,.91-.01,1.76,.69,2.71,.26Z"/>
      <path class="cls-29" d="M223.03,257.45c-3.26,1-6.7-.11-10.04,1.12-2.06,.76-2.38-2.31-3.93-3.1-4.04-1.6-1.32-5.6-2.87-8.07,.07-2.81-.68-5.7,.85-8.36,1.33,1.02,1.54,2.53,1.77,4.03,1.02,6.38,6.45,5.31,10.66,6.3,1.11,2.73,3.35,4.96,3.57,8.09Z"/>
      <path class="cls-151" d="M39.9,144.95c-.75,.6-1.49,1.2-2.58,2.07-.13-2.55-.4-5.02-3.17-6.6-1.24,2.58,.97,4.69,.65,6.93-5.72-8.88-8.2-18.7-8.36-29.18,.84-3.08,1.95-5.68,5.9-3.46,1.52,2,1.13,3.97-.02,5.98-3.17,5.56-2.39,9.97,2.7,14.03,2.68,2.14,4.55,4.73,5.52,7.98,.25,.84,.04,1.62-.65,2.23Z"/>
      <path class="cls-122" d="M189.99,231.56c.51,.04,1.01,.09,1.52,.13,.49,5.38,.12,10.77,.19,16.16-.89,3.86-3.86,4.39-7.17,4.65-4.56,.36-9.11-.79-13.66,.02-3.23-.45-6.43-.97-7.84-4.55,1.44-2.5,4.22-3.04,6.37-2.69,5.29,.86,10.42-.92,15.63-.3,2.84,.34,4.02-.9,3.4-3.74-.13-1,.2-1.96,.17-2.95-.34-1.57-.24-3.11,.26-4.64,.2-.79,.65-1.44,1.14-2.08Z"/>
      <path class="cls-146" d="M199.17,189.64c7.32-3.7,15.39-5.59,22.82-9.92,.29,3.44-4.88,2.8-3.69,6.17-8.52,4.56-17.69,7.21-27.08,9.24-.77-1.52,.31-1.87,1.38-2.47,2.12-1.18,4.77-1.18,6.57-3.02Z"/>
      <path class="cls-38" d="M151.53,263.11c-3.96,.78-7.94,.32-11.92,.22-2.42-1-2.64-3.11-2.62-5.29,.03-3.43-.16-6.86,.11-10.28,2.66-1.13,2.46,1.12,2.97,2.51-.59,3.07,.7,4.12,3.76,3.96,3.84-.2,6.9,1.03,7.36,5.52,.23,1.11,.38,2.23,.34,3.36Z"/>
      <path class="cls-24" d="M35.99,252.42c1.5,1.65,.62,3.8,1.14,5.64,1.81,.08,.16-3.75,1.87-2.25,2.91,2.56,7.78-1.75,9.54,3.16,1.08-1.75-1.25-5.41,3.01-5.46-1.07,1.76-1.46,3.79-1.34,5.72,.26,4.08-1.91,4.7-5.18,4.15-.7-.52-1.52-.46-2.33-.48-8.22-.23-9.68-2.51-6.7-10.48Z"/>
      <path class="cls-158" d="M95.66,52.34c-.73-.37-1.47-.74-2.2-1.11,0-2.33,1.93-2.62,3.48-3.46,3.57-1.92,7.65-2.66,11.09-4.85,3.52-1.52,7.33-1.98,10.99-3,3.65,.12,7.25-.02,10.46-2.09,.43-.27,.9-.44,1.4-.53,1.1-.15,1.95,.39,2.78,.99-.11,.69-.23,1.37-.34,2.06-2.52,.94-4.36,3.27-7.21,3.52-.48,0-.95,.01-1.42,.03-7.8,2.39-15.63,4.67-23.1,8.05-1.84,.83-3.84,2.18-5.93,.38Z"/>
      <path class="cls-113" d="M100.68,111.05c-3.31,0-6.62,.04-9.93,.02-9.66-.04-10.93-1.2-12.03-10.84,2.18-.92,3.89,1.34,6,.88,1.76,6.19,6.27,8.63,12.29,8.98,1.3,.07,2.61,.01,3.67,.96Z"/>
      <path class="cls-44" d="M129.51,193.74c-1.43-.02-2.88,.04-4.09-.95-.77-1.45-2.49-1.32-3.61-2.19-2.44-.56-4.92-1.01-7.06-2.41-3.77-4.07-9.13-5.09-13.92-7.22-.91-.52-1.56-1.25-1.85-2.26-.11-.81,.06-1.52,.71-2.07,9.52,4.02,19.07,7.98,28.56,12.09,2.03,.88,4.45,1.47,5.36,3.96-1.07,1.5-2.69,.87-4.09,1.06Z"/>
      <path class="cls-22" d="M199.17,189.64c2.14,.82,.44,1.22-.2,1.68-2.36,1.71-5.76,1.31-7.74,3.8-7.24,2.04-14.54,3.52-22.13,2.54,4.74-3.7,10.75-3.13,16.11-4.74,4.57-1.38,9.3-2.21,13.96-3.29Z"/>
      <path class="cls-116" d="M31.95,115.07c-3.17-1.33-3.35,2.66-5.51,3.11-.55-6.54,.34-12.91,2.38-19.13,5.84,1.17,4.59,6.26,5.6,10.11-.19,2.23,.59,4.87-2.47,5.9Z"/>
      <path class="cls-177" d="M104.7,41.49c3.58-2.42-.92-2.07-1.09-3.2,9.17-2.6,18.33-5.38,28.04-3.14-1.9,2.83-5.35,2.28-7.92,3.65-4.96,1.43-10.07,2.27-15.03,3.71-1.51,.44-2.9,.24-3.99-1.02Z"/>
      <path class="cls-124" d="M201.14,51.42c-.32-.02-.63-.04-.95-.07-.26-.96,.31-1.44,1.06-1.83,5.22,.18,9.54,2.79,13.89,5.26,.87,.49,1.34,1.4,1.05,2.51-1.75,2.42,.44,5.88-2.11,8.09-2.97-2.01-5.94-4.03-8.91-6.04,.31-1.37,2.19-2.78-.31-4.05-1.64-.83-2.79-2.28-3.71-3.87Z"/>
      <path class="cls-180" d="M229.84,88.2l-.61-3.07c.13-.31,.2-.69,.43-.89,2.97-2.45,4.88-6.18,5.24-10.24,.06-.68,.41-1.25,.85-1.76,3.08-.74,3.55,2.56,5.53,3.55,1.17,1.79,2.47,3.52,3.32,5.49,1.49,3.47,.32,5.78-3.35,6.62-3.26,.75-6.56-.04-9.83,.05-.52,.13-1.04,.2-1.57,.24Z"/>
      <path class="cls-37" d="M95.66,52.34c8.24-3.43,16.67-6.32,25.21-8.87,1.49-.44,3.03-1.71,4.61-.13-6.9,4.23-15.03,5.86-21.81,10.32-.59,.26-1.18,.51-1.76,.77-1.05,.48-2.18,.71-3.27,1.1-3.25,1.18-3.92-.3-2.96-3.18l-.02-.02Z"/>
      <path class="cls-130" d="M186.21,182.68c6.63-3.41,13.27-6.83,19.9-10.24,1.08,3.06-1.25,4.36-3.1,5.83-3.66,2.91-7.5,5.56-11.73,7.61-1.02,1.13-2.52,1.38-3.78,2.07-.48,.13-.96,.22-1.45,.26-2.86,.11-5.48,2.75-8.54,.81-.9-1.53,.33-1.97,1.31-2.54,2.4-1.39,5.07-2.26,7.39-3.81Z"/>
      <path class="cls-172" d="M99.46,192.83c-.55-3.52-3.96-2.53-6.04-3.64,.1-.42,.21-.84,.31-1.27,8.96,2.22,17.92,4.44,26.88,6.67-1.23,2.76-4.14,.48-5.81,1.92-5.31-.4-10.41-1.68-15.34-3.68Z"/>
      <path class="cls-84" d="M207.34,244.25c-.1-1.73-.21-3.47-.31-5.21,.07-.55,.14-1.09,.21-1.64,.89,.97,1.27,1.29,2.99,.44,6.23-3.07,13.05-3.48,19.92-2.54-1.84,2.87-5.68,2.01-7.86,4.23-1.96,2.33-4.54,3.14-7.48,3.04-2.37-.08-4.59,.27-6.31,2.12-.5,.17-.88,0-1.15-.44Z"/>
      <path class="cls-97" d="M36.9,231.58c2.6-.08,5.22,0,7.8-.29,3.95-.44,5.55,.9,4.25,4.89,1.29,3.65,.12,5.43-3.83,4.79-3.16-.52-6.54,1.41-9.53-.88-.84-1.2-.65-2.55-.52-3.87,1.63-3.17,4.71-2.39,6.97-2.72-1.32-.92-4.38,1.85-5.15-1.92Z"/>
      <path class="cls-21" d="M160.2,236.47c-.35,.79-1.05,.99-1.81,1.05-5.55-1.13-11.13,.54-16.7-.12-1.81-.21-3.73,.1-4.61-2.07-.13-1.25-.15-2.49,.04-3.73,1.11,0,2.22-.02,3.33-.03,.87,.68,1.91,.54,2.86,.45,5.76-.56,11.13,.48,16.04,3.61,.28,.28,.56,.56,.84,.83Z"/>
      <path class="cls-144" d="M35.87,235.53c.02,1.33,.03,2.65,.05,3.98,.49,.61,.8,1.33,1.14,2.03,.27,.75,.34,1.53,.34,2.32,.02,1.38-.35,2.61-1.39,3.58,0,1.67-.01,3.33-.02,5-.03,1.16,.04,2.33-.1,3.47-.59,4.83,1.18,7.27,6.35,6.68,.89-.1,1.86,.52,2.79,.81-11.01,.78-11.17,.78-11.01-10.14,.1-7.18-.98-14.43,.84-21.55,1.14,1.06,2.15,2.16,1.03,3.83Z"/>
      <path class="cls-139" d="M201.14,51.42c3.73,1.28,7.21,2.84,7.68,7.72-.81,.79-2.54-1.47-3.66,.2-7.3-3.66-14.59-7.32-21.89-10.99,4.76,.21,8.79,2.54,13.03,4.33,1.78,.75,4.14,2.59,4.84-1.27Z"/>
      <path class="cls-94" d="M202.16,111.94c.03-.26,.05-.52,.08-.78,3.83-.92,7.89-.53,11.62-1.99,4.59-.54,7.39-2.71,7.33-7.74-.01-1.26,.47-2.55,1.89-3.11,.3-.14,.59-.28,.89-.42,4.96,1.02,3.93,5.2,3.93,8.34,0,4.21-3.87,4.11-6.79,4.83-6.28,1-12.6,1.23-18.94,.87Z"/>
      <path class="cls-135" d="M190.29,184.87c3.34-2.82,7.52-4.32,10.85-7.3,1.81-1.62,3.74-2.99,4.97-5.13,2.34-1.59,4.68-3.17,7.02-4.76,1.37,2.23-.36,3.72-1.35,5.33-1.47,2.39-3.61,4.29-5.02,6.73-3.68,2.9-8.11,4.15-12.41,5.69-1.44,.51-2.87,.76-4.07-.57Z"/>
      <path class="cls-104" d="M221.1,111.07c6.82-3.21,7.66-7.07,2.87-13.17,.97-.67,1.94-1.34,2.9-2.01,.41,3.22,2.77,5.45,4.2,8.15,2.02,3.81,.91,5.61-3.21,6.38-2.26,.42-4.48,.74-6.76,.65Z"/>
      <path class="cls-77" d="M76.86,159.61c3.66,3.28,7.32,6.56,10.97,9.83,1.22,1.78,2.87,3.13,4.47,4.54,1.52,1.34,2.95,2.81,1.52,5.08-2.92,1.44-4.86-.45-6.88-2.04-1.38-3.59-4.59-5.74-6.86-8.63-1.07-2.93-5.44-4.65-3.22-8.78Z"/>
      <path class="cls-93" d="M76.86,159.61c-.14,3.44,3.89,4.84,4,8.15-.33,.36-.73,.59-1.22,.67-3.92-.99-5.79-4.31-7.56-7.36-2.48-4.28-4.45-8.83-8.1-12.34-.64-.61-.67-1.47-.14-2.27,.58-.55,1.28-.83,2.06-.93,2.36-.29,3.04,1.59,4,3.11,2.32,3.65,4.63,7.31,6.95,10.96Z"/>
      <path class="cls-99" d="M77,99.7c-.09,.47-.19,.95-.28,1.42-1.73,3.32-1.49,6.64,.03,9.95-.49,.01-.98,.08-1.47,.03-2.74-.24-6.25,.02-7.6-2.36-1.47-2.6,2.56-3.62,3.45-5.74,.83-1.98,3.76-3.02,2.67-5.86,1.37,.47,3,.61,3.2,2.55Z"/>
      <path class="cls-115" d="M120.81,262.95c-.38-.18-.76-.36-1.15-.54-.67-3.81-1.4-7.62-2.22-11.4,.02-1.72,.79-3.39,.38-5.15,.23-1.38-.05-2.77,.12-4.15-.06-1.09-.07-2.18-.01-3.27-.36-1.67,.05-3.28,.32-4.9,.32-.8,.87-1.4,1.58-1.86,.95,.13,1.5,.67,1.49,1.63-.11,9.88,.75,19.79-.51,29.65Z"/>
      <path class="cls-175" d="M217.93,132.08c2.71-.18,4.04-3.26,6.98-3.17,2.31,.07,4.64-1.84,6.9,.43,2.59,2.61-.77,4.42-.74,6.66,.35,.36,.53,.79,.56,1.29-.36,1.33-1,2.24-2.58,1.74-.34-.39-.67-.78-1.01-1.16-.13-4.97-4.52-3.58-7.16-4.79-1.1,.01-2.12-.24-2.96-1Z"/>
      <path class="cls-140" d="M163.39,247.46c1.59,2.5,4.74,2.42,6.82,4.12,2.46,.56,5.34,.48,5.88,3.92,.03,.65,.06,1.29,.09,1.94-2.55,.95-3.43-2.66-5.83-2.12-5.43-2.33-9.75-6.85-15.79-7.99-1.73-2.58-.34-3.51,2.06-3.94,2.61,.76,5.4,1.24,6.77,4.07Z"/>
      <path class="cls-105" d="M35.91,241.5c0-.66,0-1.33,0-1.99,3.6,.04,7.21-.02,10.8,.15,2.97,.14,1.57-2.27,2.24-3.47,.9,3.46,3.05,5.07,6.71,5.01,5.39-.1,10.79,.39,16.13-.7,.29,.48,.33,.99,.13,1.51-1.32,2.34-3.61,1.87-5.71,1.97-5.08,.26-10.2-.53-15.26,.51-4.16-.08-8.1-2.29-12.43-1.14-1.19,.31-2-.87-2.63-1.85Z"/>
      <path class="cls-83" d="M220.09,168.81c-1.59,.82-2.01,2.26-2.08,3.89,.03,1.12-.6,1.83-1.49,2.38-1.16,.58-2.32,.84-3.49,.04-1.83-3.2,.57-5.17,2.21-7.29,2.18-2.81,5.42-4.76,6.7-8.31,1.69-2.28,3.37-4.56,5.06-6.84,.7,3.34-.72,6.24-1.93,9.17-1.93,2.13-3.17,4.75-4.99,6.96Z"/>
      <path class="cls-66" d="M221.95,159.52c0,4.86-4.65,6.91-6.6,10.63-.81,1.55-1.7,3.01-2.16,4.71-1.01,3.75-3.57,4.65-7.06,3.81,1.42-4.25,5.54-6.77,7.01-10.99,2.94-2.72,5.88-5.44,8.82-8.17Z"/>
      <path class="cls-72" d="M215.14,110.1c-4.18,1.91-8.62,.51-12.91,1.06-.35-.04-.7-.09-1.06-.13,2.29-1.81,5.12-.55,7.65-1.39,4.83-1.6,7.06-5.52,9.29-9.53,.99-.34,1.98-.68,2.97-1.02,1,5.28-.74,9.08-5.94,11.01Z"/>
      <path class="cls-147" d="M65.78,133.01c.62-5.41,4.43-6.67,10.19-3.03,1.86,1.17,3.53,2.22,5.77,2.05-1.17,.83-2.51,1-3.9,1.03-4.48-.54-7.28,1.39-8.46,5.72-.16,.17-.32,.34-.48,.51-.47,.13-.93,.11-1.39-.04-1.08-.67-1.61-1.72-2.01-2.87-.15-1.14-.57-2.32,.28-3.38Z"/>
      <path class="cls-123" d="M157.28,244.61c-2.04-.23-2.98,.64-2.71,2.72-.46,.2-.92,.4-1.39,.59-1.25,.54-1.91,2.05-3.45,2.14-3.99-1.18-8.84,.46-11.95-3.62-.31-.37-.56-.78-.74-1.24-.04-.96-.23-1.94,.3-2.84,.44-.24,.9-.26,1.37-.08,4.93,1.56,9.89,.63,14.85,.19,1.58-.24,3.14-.44,3.99,1.4-.09,.25-.18,.49-.27,.74Z"/>
      <path class="cls-134" d="M93.63,178.86c-.57-3.98-5.4-5.33-5.79-9.42,2.64,1.69,5.27,3.38,7.91,5.07,1.12,1.59,3,2.47,3.91,4.25,.66,.34,1.31,.69,1.97,1.03,.94,2.07,5.44,.98,4.32,4.88-.35,.39-.79,.6-1.32,.64-3.27-.88-6.28-2.37-9.25-3.96-1-.53-2.06-1.02-1.75-2.48Z"/>
      <path class="cls-125" d="M206.18,247.4c1.7,2.43,.85,5.76,2.87,8.07,.9,5.62,5.1,7.19,9.89,7.98,1.54,.26,3.44-.43,4.18,1.72-2.78-.26-5.6-.32-8.34-.83-5.16-.98-8.26-4.82-8.65-10.52-.15-2.13,.02-4.28,.04-6.42Z"/>
      <path class="cls-60" d="M236,72.3c.02,.32,.01,.66,.08,.97,1.88,9.06,1.86,9.1-6.85,11.86-.08-.32-.16-.65-.24-.97,2.9-4.02,.65-10.32,5.88-13.32,.82,.14,1.45,.43,1.13,1.45Z"/>
      <path class="cls-159" d="M234.97,71.43c-.9,.92-2.29,1.85-1.83,3.23,1.49,4.51-.32,7.4-4.14,9.5-.42-.92-.84-1.84-1.27-2.76,1-4.44,.06-9.32,3.07-13.3,2.68-.5,3.89,.84,4.17,3.33Z"/>
      <path class="cls-166" d="M264.94,104.12c0,.98,.01,1.96,.02,2.94-.02,1.67-.04,3.35-.06,5.02-2.11,.08-2.23-1.53-2.4-2.96-.5-4.18-1.42-8.33-1.24-12.57,1.1-2.71,1.65-5.9,5.43-6.32,.4,1.01,.8,2.01,1.21,3.02,.43,2.28,1.74,4.83-1.84,5.85-.21,.06-.28,.12-.21,.77,.15,1.52-.33,2.89-.91,4.24Z"/>
      <path class="cls-152" d="M231.15,68.12c-.38,4.62-.51,9.31-3.42,13.29-.6-1.03-1.2-2.06-1.8-3.08,.67-4.07,1.24-8.17,3.1-11.93,1.66-.6,2.1,.3,2.13,1.73Z"/>
      <path class="cls-10" d="M119.82,231.66c-.13,.63-.27,1.25-.4,1.88-1.04,2.54-3.27,2.9-5.59,2.92-2.26,.01-4.48,.19-6.67,.74-.54-.09-1.01-.34-1.39-.74-.13-1.63-.26-3.27-.4-4.9,4.82-.29,9.64-.44,14.45,.1Z"/>
      <path class="cls-28" d="M95.68,52.36c.62,5.07,4.19,1.27,6.23,2.07-3.4,1.95-6.81,3.91-10.21,5.86-4.52-.79-1.11-3.25-1.05-5,1.68-.98,3.36-1.96,5.03-2.94Z"/>
      <path class="cls-13" d="M74.81,231.65c3.92-.49,7.84-.34,11.76-.03,.95,.82,1.11,1.81,.62,2.94-4.12,1.96-8.43,2.6-12.94,1.72-.66-1.65-.73-3.22,.56-4.63Z"/>
      <path class="cls-78" d="M229.06,139.03c.69-.66,1.39-1.32,2.08-1.98,.21-.4,.53-.58,.99-.49,.59,.31,.93,.8,.98,1.47-.21,1.38-3.83,2.88,.32,4.12,2.37,.71,.94,2.41,.17,3.42-1.18,1.54-2.92,2.47-4.73,3.2,.81-3.23,.6-6.48,.19-9.73Z"/>
      <path class="cls-5" d="M266.7,90.23c-1.26,1.64-2.52,3.29-3.78,4.93-1.46-.61-2-1.53-1.02-2.97,2.21-4.2-1.12-7.98-.94-12.02,2.54,3,4.59,6.27,5.74,10.07Z"/>
      <path class="cls-1" d="M35.87,235.53c-.99-1.1-.93-2.49-1.03-3.83,.69-.04,1.37-.08,2.06-.12,2.39,1.66,5.1,.64,7.66,.94,1.12,.13,2.43-.08,2.92,1.27,.19,.53,.12,1.4-.21,1.81-.99,1.22-2.14,.51-3.01-.2-2.87-2.35-5.59,1.04-8.39,.12Z"/>
      <path class="cls-183" d="M32.95,109.1c-.23-3.82-1.66-7.14-4.13-10.04,.25-2.13,.84-4.15,2.06-5.94,5.28,4.31,5.29,9.83,3.64,15.74-.46,.48-.99,.56-1.57,.24Z"/>
      <path class="cls-142" d="M68.78,138.66c.23-.6,.69-1.21,.67-1.81-.18-5.79,1.07-6.78,6.13-4.75,.76,.31,1.51,.65,2.27,.97-2.78,1.82-5.85,3.23-8.02,5.87-.46,.33-.81,.26-1.04-.28Z"/>
      <path class="cls-161" d="M114.8,196.51c1.09-3.19,3.9-1.2,5.81-1.92,3.31-.13,6.32,.94,9.26,2.28-5.08,2.33-10.07,.77-15.07-.36Z"/>
      <path class="cls-157" d="M261.87,260.14c.21-2.6,1.49-5.08,.94-7.77-.88-1.97,.18-4.33-1.24-6.19,.09-2.59-1.57-5.03-.63-7.69,.33-.4,.66-.79,1-1.19,3.53,1.53,2.11,4.91,2.36,7.35,.53,5.27,1.02,10.76-2.43,15.5Z"/>
      <path class="cls-88" d="M86.67,234.51c-.03-.97-.07-1.93-.1-2.9,.47,.02,.94,.05,1.41,.07,.44,3.12,.17,6.25,.16,9.38-.19,.55-.5,1.02-.93,1.43-4.21,2-8.31,.93-12.4-.44-1.08-1.43-.59-2.58,.66-3.58,.92-.44,1.84-.89,2.89-.96,2.25,.04,4.76,1.67,6.55-1.09,.51-.71,1.19-1.26,1.75-1.91Z"/>
      <path class="cls-25" d="M34.81,84.85c1.05,4.73,1.28,9.52,1.18,14.35,1.65,1.96,1.78,3.71-.68,5.13-1.04-4.49-2.19-8.96-3.48-13.39,.18-2.43,1.54-4.28,2.98-6.08Z"/>
      <path class="cls-58" d="M215.14,110.1c3.11-3.06,5.46-6.53,5.94-11.01,.66-.26,1.33-.51,1.99-.77-.15,1.43-.4,2.86-.43,4.3-.1,4.64-2.39,6.96-7.51,7.48Z"/>
      <path class="cls-158" d="M103.67,53.67c6.42-5.24,14.35-7.29,21.81-10.32,0,0,.13,.13,.13,.13,.58,.38,.57,.74-.01,1.1-7.31,3.03-14.62,6.06-21.93,9.09Z"/>
      <path class="cls-186" d="M150.32,249.39c.41-1.55,1.28-2.2,2.87-1.47-1.66,4.94,.09,10.26-1.65,15.19-.44-.95-.88-1.89-1.31-2.84-.05-2.36-1.06-4.52-1.37-6.83,.14-1.48,0-3.06,1.47-4.05Z"/>
      <path class="cls-163" d="M190.99,248.48c.17-5.6,.34-11.19,.52-16.79,1.95,2.67,.89,5.73,.92,8.58,.09,7.42-.17,14.84-.29,22.26-2.04-2.8-.45-6.07-1.14-9.04-1.63-1.66-.61-3.33-.01-5Z"/>
      <path class="cls-160" d="M87.52,241.43c.15-3.25,.3-6.5,.46-9.75,1.89,3.04,.88,6.4,.93,9.6,.11,7.09-.14,14.18-.24,21.28-2.08-2.84-.39-6.15-1.13-9.15-1.19-1.14-1.48-2.59-1.45-4.15-.24-2.74-.16-5.42,1.43-7.82Z"/>
      <path class="cls-154" d="M31.83,90.94c4.02,3.71,2.92,8.65,3.15,13.26,2.02,2.2,2.02,4.25-.49,6.08-.74-.11-.98-.51-.71-1.22,.93-5.66-.33-10.92-2.9-15.95,.32-.73,.63-1.45,.95-2.18Z"/>
      <path class="cls-184" d="M264.94,104.12c-1.89-4.41,3.03-6.96,2.96-10.87,1.72,2.7,2.57,5.68,2.84,8.84-3.26-3.12-4.1,.71-5.81,2.03Z"/>
      <path class="cls-63" d="M186.21,182.68c-1.95,3.48-6.52,3.19-8.83,6.15-.15,.17-.31,.35-.46,.52-2.4,.55-4.66,2.22-7.29,.86-.13-.19-.26-.38-.39-.58,5.31-3.17,11.14-5.05,16.97-6.96Z"/>
      <path class="cls-158" d="M90.64,55.3c1.67,1.39-1.12,3.72,1.05,5-.71,1.05-1.72,1.68-2.91,2.05-4.9-3.85-4.8-4.22,1.86-7.05Z"/>
      <path class="cls-40" d="M68.78,138.66c.35,.09,.7,.18,1.04,.28-.62,3.25-.66,6.49,.1,9.72-1.29-.72-2.41-1.85-4.06-1.76-.91-.72-2.32-.83-2.74-2.18-.54-4.27,3.63-3.76,5.59-5.49-.02-.19,0-.38,.06-.57Z"/>
      <path class="cls-162" d="M69.55,252.58c3.04-2.15,3.9-.13,4.62,2.35,.81,2.76-.23,5.9,1.73,8.42-2.87,.62-3.18-1.12-3.23-3.33-.06-2.86,.27-5.96-3.13-7.45Z"/>
      <path class="cls-102" d="M76.76,239.49c-1.19,.17-1.87,.82-1.96,2.04,.13,.17,.25,.34,.38,.51-.08,.2-.16,.4-.24,.59-.36,.25-.76,.39-1.2,.4-.92-.16-1.61-.6-1.93-1.52,0-.35,0-.69,0-1.04,1.44-2.01,.91-4.34,1.01-6.55,.06-1.36-.03-2.71,2-2.29,.02,1.57,.05,3.14,.07,4.71,1.31,.63,3.25,.89,1.88,3.13Z"/>
      <path class="cls-7" d="M189.99,231.56c.07,.65,.14,1.31,.21,1.96-4.26,2.84-8.25,2.99-11.97,.45-.45-.82-.64-1.61,.18-2.34,3.86-.03,7.72-.05,11.58-.08Z"/>
      <path class="cls-63" d="M177.5,191.88c-4.14,.66-8.12,3.59-12.51,.95,.81-1.88,2.23-2.94,4.26-3.19,0,0,.24,.24,.24,.24,.34,.29,.72,.52,1.14,.69,2.01,.33,4.07-.94,6.05,.21,.39,.28,.67,.65,.83,1.1Z"/>
      <path class="cls-170" d="M220.89,133.08c.96-.04,1.97,.09,2.88-.15,5.8-1.47,5.93-1.34,4.28,4.93-2.03-2.14-4.75-3.23-7.16-4.79Z"/>
      <path class="cls-87" d="M178.41,231.64c.06,.62,.12,1.24,.19,1.85,.55,2,3.07,2.7,3.27,4.94,.28,1.76-.84,3.04-1.54,4.46-.46,.55-1.02,.9-1.75,.98-1.13-.15-2.24-.38-3.14-1.15-.1-.15-.2-.3-.3-.46,2.06-1.69,2.45-3.92,2.42-6.46-.01-1.37-1.42-3.2,.84-4.16Z"/>
      <path class="cls-114" d="M170.36,255.32c2.72-1.43,3.93,1.29,5.83,2.12,1.1,1.83,2.04,3.72,2.31,5.88-3.15,.5-2.53-2.78-3.98-4.01-1.46-1.24-2.78-2.65-4.16-3.99Z"/>
      <path class="cls-20" d="M241.98,229.42c-4.96,1.81-9.92,1.76-14.89,.03,4.96-.74,9.92-.81,14.89-.03Z"/>
      <path class="cls-176" d="M137.53,247.46c.35,5.33-1.39,10.94,2.08,15.87-2.26,.48-3.37-.33-3.33-2.75,.08-5.05,.06-10.1,.08-15.15,.4-.64,.74-.61,1.01,.1l.22-.09c.43,.68,.51,1.36-.06,2.02Z"/>
      <path class="cls-102" d="M159.35,235.63c-5.97-2.92-12.59-2.79-18.91-4.06,6.67-.36,13.45-1.25,18.91,4.06Z"/>
      <path class="cls-57" d="M172.21,40.58c-2.81-.48-5.13-1.89-7.19-3.78,.25-1.16,1.11-1.46,2.14-1.53,1.96,.68,3.9,1.45,6.04,1.22,.29,.21,.42,.45,.4,.72-.02,.29-.07,.44-.14,.44-1.92,.34-.61,2.05-1.24,2.93Z"/>
      <path class="cls-75" d="M123.57,37.46c2.43-1.71,5.31-1.82,8.08-2.3,1.67,.41,2.48,1.37,2.01,3.14-1.05,.03-2.11,.06-3.17,.09-2.28-.49-4.94,1.8-6.92-.93Z"/>
      <path class="cls-45" d="M230.91,92.28c-.34-.06-.68-.11-1.03-.17-.01-1.3-.03-2.6-.04-3.91,0,0,.46-.05,.46-.05,.6-.26,1.23-.38,1.86-.18,1.82,.58,3.5,1.72,2.85,3.71-.69,2.11-2.63,.93-4.1,.6Z"/>
      <path class="cls-145" d="M137.37,245.54c-.34-.03-.67-.07-1.01-.1-.02-4.63-.91-9.3,.75-13.84,.17,1.31,.34,2.62,.5,3.93,.51,.98,.81,1.96,.03,2.95,0,.99,0,1.98,0,2.98,.32,.23,.43,.46,.31,.67-.12,.21-.23,.32-.34,.32l-.24,3.09Z"/>
      <path class="cls-39" d="M257.9,261.4c.9,0,1.8,.01,2.7,.02-2.14,3.04-5.3,3.25-8.59,3.1,1.96-1.04,3.92-2.08,5.88-3.12Z"/>
      <path class="cls-153" d="M125.6,44.58c0-.37,0-.74,.01-1.11,2.87-.3,4.68-3.21,7.71-3.12-2,2.45-4.61,3.79-7.72,4.22Z"/>
      <path class="cls-129" d="M129.51,193.74c1.14-1.23,2.68-.91,4.09-1.06,.54,.63,.74,1.3,.27,2.06-1.51-.09-3.13,.33-4.36-1Z"/>
      <path class="cls-61" d="M99.66,178.76c-2.15-.64-3.56-1.96-3.91-4.25,1.57,.24,2.81,1.08,3.94,2.12-.01,.71-.02,1.42-.03,2.13Z"/>
      <path class="cls-27" d="M261.9,92.18c.34,.99,.68,1.98,1.02,2.97-.19,5.74,.34,11.4,1.98,16.93,0,4.87,.03,9.74,0,14.61-.01,1.99-.44,3.87-1.98,5.32-1.62-1.13-1.61-2.74-1.05-4.33,.87-2.44,1.01-4.98,1.2-7.22-.24,.82-.13,1.97-.23,3.09-3.74,6.49-7.09,7.27-12.12,2.39-1.83-1.78-2.39-.7-3.31,.55-.7,.69-1.5,1.09-2.52,.86-2.15-2.7-5.45-3.95-7.89-6.29-1.43,0-2.4-2.08-4.08-.9-2.06,.48-4.12,.88-6.11-.28-9.76-1.47-19.51-1.85-29.42-1.57-12.36,.35-24.75,.81-37.16-.52-9.19-.98-18.53-.13-27.81-.28-2.08-.04-5.6,1.02-5.55-2.12,.04-2.48,3.48-1.76,5.5-1.77,19.71-.05,39.41-.08,59.12,0,9.31-.33,18.63,.47,27.92-.42,9.11,.31,18.03-.67,26.57-4.06,3.12-.51,6,.12,8.9,1.39,4.43,1.95,4.99,1.48,5.2-3.21,.05-1.19-.25-2.24-.57-3.33-.37-3.02-2.57-5.7-1.67-8.95,.49-1.33,1.58-2.07,2.75-2.73,.43-.04,.86-.08,1.28-.12Z"/>
      <path class="cls-11" d="M172.21,40.58c-.61-.85-1.87-1.88-1.7-2.5,.34-1.19,1.92-.33,2.89-.75,6.27-.78,12.02,1.27,17.79,3.22,14.7,4.62,29.17,9.74,41.86,18.82,3.23,2.31,6.49,4.57,9.06,7.65,1.32,1.61,3.99,3.21,.02,4.84-3.21,.1-4.47-2.62-6.36-4.42-2.69-3.3-6.5-5.06-9.98-7.28-13.93-9.01-30.17-12.2-45.37-17.99-2.54-1.55-5.7,.12-8.2-1.59Z"/>
      <path class="cls-107" d="M241.99,70.74c2.67-1.16,.14-2.48,.12-3.73,3.41,1.56,5.04,4.99,7.71,7.33,.86,.88,1.68,1.78,1.67,3.12-.25,.79-.8,1.24-1.59,1.42-4.34-1.06-7.28-3.48-7.9-8.15Z"/>
      <path class="cls-132" d="M191.2,40.55c-5.93-1.07-11.86-2.15-17.79-3.22-.07-.28-.14-.56-.2-.83,6.34-.18,12.64-.14,18,4.06Z"/>
      <path class="cls-82" d="M260.61,92.3c.28,1.39,.3,2.56-1.71,2-3.58-.57-3.5-3.55-4.04-6.13,0-1.01,.4-1.87,.97-2.68,.33-.35,.72-.6,1.19-.73,1.97,2.15,2.26,5.09,3.59,7.54Z"/>
      <path class="cls-121" d="M251.11,77.02c-.43-.89-.86-1.79-1.29-2.68,3.9,2.43,6.18,6,7.2,10.42-.05,.26-.09,.52-.14,.77-4.01-1.42-4.83-5.01-5.78-8.51Z"/>
      <path class="cls-2" d="M123.57,37.46c2.18-.3,4.36-.77,6.56-.85,2.71-.1,.5,1.12,.37,1.78,0,0,0,0,0,0-3.21,2.56-7.26,2.06-10.92,3.01-3.65,1-7.3,2-10.95,3.01-11.54,3.59-22.57,8.32-32.84,14.75-8.63,5.26-16.38,11.59-23.03,19.24-1.72,.94-2.92,3.08-5.37,2.31-1.09-.69-1.24-1.58-.6-2.66,9.49-13.28,22.56-21.92,37.13-28.6,3.88-1.78,7.85-3.35,11.77-5.02,2.78-1.69,6.03-1.94,9.03-2.95,0,0,0,.03,0,.03,6.29-1.34,12.58-2.69,18.87-4.03Z"/>
      <path class="cls-41" d="M34.05,110.25c1.2-1.88,.87-4,.94-6.06,1.18-1.5,.83-3.3,1-5,2-3.43,.2-8.19,3.87-11.04,.74,.51,1,1.22,.86,2.09,.3-.53,.3-1.15,.56-1.69,.99-2.1,1.99-4.2,4.97-3.49,2.12,1.84,4.03,3.7,.64,6.11-.34,1.65-.67,3.3-1.01,4.95-4.79,5.26-5.93,11.32-4.23,18.13,.53,2.15,1.3,4.11,2.75,5.72,4.12,4.56,4.22,9.36,1.13,14.46-4.87,3.15-5.69-1.79-7.91-3.95-1.84-3.49-1.63-7.31-1.7-11.08,.09,1.94,0,3.89,.15,5.84,.11,1.45,.09,3.09-2.22,2.75-1.58-1.25-2.29-3.09-1.8-4.82,1.2-4.25,.46-8.77,2-12.94Z"/>
      <path class="cls-18" d="M45.78,85.1c-2.99,1.9-3.52,5.72-6.56,8.32,.25-2.05,.45-3.65,.64-5.26,1.99-3.59,3.83-7.29,6.91-10.13,.45,.77,.89,1.55,1.34,2.32,1.25,2.18-.15,3.4-1.66,4.58-.22,.05-.45,.11-.67,.16Z"/>
      <path class="cls-177" d="M104.7,41.46c-2.82,1.57-5.86,2.45-9.03,2.95,2.38-2.91,5.77-2.73,9.03-2.95Z"/>
      <path class="cls-46" d="M104.53,184.71c.41,0,.82,.02,1.23,.03,.39-.3,.83-.42,1.32-.32,5.26,1.73,9.92,5.23,15.74,5.3,1.04,.37,2.17,.59,3.11,1.14,1.85,1.08,.68,1.55-.51,1.93-16.87-2.91-33.02-8.14-48.63-15.09-2.97-2.37-6.85-3.52-9.17-6.78-.14-1.06-.84-1.81-1.62-2.35-5.83-4.04-9.98-9.71-14.62-14.91-3-4.55-5.79-9.17-5.96-14.85,.17-1.35,.46-2.63,1.99-3.11,4.45,1.51,3.17,6.5,5.61,9.23,6.47,11.32,15.61,20.02,26.53,26.98,7.66,5.59,16.16,9.52,25,12.82Z"/>
      <path class="cls-179" d="M34.05,110.25c.17,5.95-1.56,11.99,.85,17.83,3.6,2.02,2.78,6.51,5.15,9.21,1.14,2.04,2.1,4.17,3.23,6.21,.56,2.9,4.41,4.71,2.8,8.33-3.09-1.37-4-4.7-6.18-6.89-1.69-4.09-3.07-8.07-8.09-9.83-3.54-1.24-4.53-11.68-1.73-14.2,1.88-1.69,1.93-3.69,1.86-5.86,1.07-1.87,1.01-3.92,1-5.97,.28,0,.56-.02,.84-.03,.09,.4,.17,.79,.26,1.19Z"/>
      <path class="cls-36" d="M46.08,151.84c-1.42-2.63-2.84-5.26-4.26-7.89,4.32-.66,5.03,3.33,7.06,5.57,1.19,1.31,1.2,3.92,3.95,3.42,5.18,5.35,9.66,11.38,15.55,16.05,1.14,.9,.52,1.66-.75,1.92-8.59-4.77-15.02-11.98-21.54-19.07Z"/>
      <path class="cls-80" d="M208.07,244.37c.15-2.91,1.54-3.9,4.53-3.7,2.93,.2,6.36,1.23,8.42-2.24,.76,.11,1.31,.5,1.68,1.18,.17,.45,.24,.92,.24,1.4-.75,4.09-3.62,8.59,2.25,11.38,2.71,1.01,5.52,1.02,8.34,1.04,2,.01,4,.1,5.53,1.71,.3,.54,.26,1.06-.1,1.56-4.22,.77-8.54-.4-12.75,.65-1.06,.04-2.11,.07-3.17,.11-2.77-1.87-4.11-4.48-4.02-7.82-1.41-1.55-3.09-2.25-5.26-2.16-2.4,.09-4.55-.67-5.67-3.1Z"/>
      <path class="cls-92" d="M238.94,256.26c.03-.24,.05-.49,.07-.73,2.48-2.81,5.55-3.38,9.03-2.34,1.19-.38,1.96-.08,2.08,1.28-1.45,2.35-3.56,3.21-6.25,2.8-1.52-.97-3.53,.47-4.94-1Z"/>
      <path class="cls-4" d="M238.94,256.26c1.63,.43,3.48-.27,4.94,1.01-5.89,.51-11.78,.42-17.68,.07,4.09-2.19,8.52-.37,12.74-1.08Z"/>
      <path class="cls-122" d="M47.89,135.97c-.98,.79-1,1.9-1.03,3.01-3.47-.56-2.8-2.75-1.96-5,2.27-5.64,.82-10.18-3.37-14.55-3.19-3.32-3.42-16.93-1.14-20.51,1.31-2.06,4.22-.76,5.5-2.78-.58,2.75-.75,5.56,.15,8.2,.73,2.14,1.34,4.97,4.85,3.73,7.78,3.86,16.01,5.5,24.67,5.09,8.4,.93,16.84,.63,25.22,.27,7.6-.33,15.19-.3,22.79-.33,20.51-.08,41.01-.04,61.52-.01,2.11,0,4.34-.43,6.19,1.11-1.78,1.28-3.84,.82-5.79,.83-17.57,.05-35.14,.03-52.71,.09-1.59,0-3.26-.45-4.96,.51,34.48,1.64,68.83,.81,103.43,1.78-1.16,2.16-2.87,1.32-4.19,1.65-1.65,1.94-3.94,1.3-6.02,1.46-2.48,0-4.95,0-7.43,0-44.27-1-88.54-.67-132.8,0-5.36-.45-10.7,.53-16.08,.18-2.97-.19-5.45,2.02-8.18,3.02-.72,.74-2.77,.28-2.05,2.31,2.3,2.69,6.58,3.15,7.84,6.98-.01,.48-.18,.9-.47,1.27-2.72,1.4-4.74-.4-6.74-1.67-4.5-2.86-4.45-2.93-5.99,1.88-.21,.65-.62,1.14-1.23,1.46Z"/>
      <path class="cls-6" d="M191.27,114.21c-23.86-.03-47.72-.05-71.58-.11-12.59-.03-25.19-.11-37.78-.22-2.13-.02-4.32,.26-6.36-.72,7.24-.03,14.48-.04,21.72-.12,1.77-.02,3.65,.42,5.25-.81,29.28,0,58.56,0,87.84-.01,5.49,1.76,11.12,.49,16.68,.79,4.12,.22,8.26,.13,12.4,.18-9.34,1.51-18.79,.38-28.16,1.01Z"/>
      <path class="cls-122" d="M49.89,107.11c-2.04-2.75-2-4.66,1.49-6.5,4.85-2.56,9-6.46,14.7-7.33-4.45,2.77-8.81,5.68-13.37,8.25-2.38,1.34-3.3,3.01-2.82,5.59Z"/>
      <path class="cls-95" d="M76.75,111.08c-4.12-3.83-4.12-4.66-.03-9.95,.43,3.37-.38,6.99,2.02,9.96-.66,0-1.33,0-1.99-.01Z"/>
      <path class="cls-103" d="M230.91,92.28c1.01-.4,2.91,.33,3-.77,.18-2.16-2.36-2.24-3.61-3.36,.85-3.23,3.49-1.49,5.34-1.88,2.63-.55,6.25,1.38,7.78-1.33,1.67-2.97-1.82-5.23-3.02-7.81-.14-.3-.32-.57-.49-.86-.16-1.01,.42-1.34,1.29-1.42,5.81,2.84,9.95,9.6,9.3,15.15-1.69,1.82-4.44,.92-6.36,2.41,1.2,1.72,3.33,2.17,4.6,3.67,.91,1.08,1.48,2.26,.71,3.61-.58,1.02-1.48,1.2-2.47,.45-5.36-2.62-10.71-5.24-16.07-7.87Z"/>
      <path class="cls-181" d="M260.92,104.12c1.3,1.35,.98,3.06,.98,4.68,0,5.73-1.23,6.46-6.35,4.12-3.11-1.42-6.36-2.53-9.54-3.78,2.23-.98,2.74-3.28,3.92-5.07,1.16-3.07-.43-6.48,1.2-9.49,4.47-1.46,5.56,2.51,7.56,4.85,1.11,1.3,.82,3.43,2.23,4.7Z"/>
      <path class="cls-90" d="M251.9,94.16c-.08,3.42,.66,7-1.97,9.91,.07-2.1-2.02-2.57-2.95-3.92,3.17-1.33,1.63-2.57-.17-3.54-2.69-1.45-5.43-2.76-7.72-6.22,4.17,.65,7.37-2.23,11.01-.31,2.61,.48,2.21,2.28,1.79,4.08Z"/>
      <path class="cls-64" d="M244.92,126.94c.68-.32,1.35-.63,2.03-.95,4-1.4,7.33,1.07,7.42,5.87,.05,2.53-.09,4.93,1.84,6.87,1.49,1.56-.31,3.56,.7,5.19-2.62,6.92-7.97,11.76-12.91,16.91-2.25,2.35-4.66,4.54-6.99,6.81-1.35,.99-2.71,1.97-4.06,2.96-15.63,10.3-33,16.27-51.08,20.46-1.44,.33-2.91,.54-4.37,.81-.51-.12-1.03-.24-1.54-.37,1.1-2.69,3.86-1.92,5.84-2.76,1.65-.71,3.44-1.08,4.99-2.04l-.06,.03c10.87-2.05,20.47-7.17,30.06-12.34,13.28-8.63,25.41-18.27,29.97-34.48,.53-1.11,1.03-2.25,2.38-2.62,2.58-1.16,2.15-3.53,1.95-5.55-.31-3.08-1.64-4.65-4.87-2.42-4.31,2.97-8.73,5.81-13.1,8.7-.37-.32-.75-.64-1.12-.96,1.66-3.1,5.25-4.65,6.48-8.1,1.76-1.92,3.58-3.65,6.46-2.02Z"/>
      <path class="cls-150" d="M200.93,121.17c-34.01,0-68.02,0-102.03,0-.95,.35-1.9,.72-2.4-.63,1.38-1.88,3.38-.94,5.05-.95,15.25-.08,30.5,0,45.75-.06,18.87-.08,37.74,.08,56.61,.06,1.49,0,3.37-.89,4.41,1.13-2.39,1.51-4.9,.82-7.4,.45Z"/>
      <path class="cls-148" d="M96.65,120.83c.75,.11,1.5,.23,2.25,.34-2.28,.96-4.7,.82-7.08,.93-8.94,4.44-17.65-.46-26.48-.62-1.68-.03-3.23,.39-4.52,1.54-2.11,2.45-4.19,3.87-6.16-.14,8.04-3.45,16.53-3.83,25.09-3.71,.03,.16,.12,.33,.09,.47-.03,.12-.21,.2-.32,.31,3.99,.25,7.98-.04,11.96,.11,1.74,.06,3.59-.48,5.16,.77Z"/>
      <path class="cls-149" d="M200.93,121.17l7.25-.16c3.44-1.9,7.18-.55,10.74-.95,1.43-.11,2.73,.69,3.99,.46-.42-.39-2.24,.53-1.79-1.37,1.98-.03,3.95-.05,5.93-.08,1.76,1.46,3.92,.74,5.89,1.08-3.81,1.22-7.45,2.37-10.96,4.78-3.12,2.15-7.38-.75-11.07-1.8-3.33-.66-6.66-1.32-9.98-1.98Z"/>
      <path class="cls-178" d="M249.1,238.4c-.57,3.03,1.62,6.08-.06,9.1-.81-.3-1.62-.82-1.82-1.58-1.37-5.16-5.21-5.44-9.63-5.45-3.62,0-7.7,1.42-10.72-2.06,.26-1.8,1.68-1.75,2.99-1.88,4.58-.47,9.16-.95,13.78-.99,1.21,0,2.39,.08,3.4,.85,.31,.07,.62,.15,.93,.24,.94,.23,1.4,.77,1.15,1.77Z"/>
      <path class="cls-43" d="M243.95,236.56c-5.57,.51-11.15,1.01-16.72,1.52-1.08,2.41-2.79,2.89-5.07,1.69-.38-.44-.76-.89-1.14-1.33,2.62-2.28,5.93-2.56,9.14-3.13,.29,.02,.57,.02,.85-.02,3.7-.57,7.42-.14,11.13-.24,.97-.02,2.03,.02,1.81,1.5Z"/>
      <path class="cls-84" d="M249.1,238.4c-.38-.59-.77-1.18-1.15-1.77,3.29-2.78,10.14-1.78,12.09,1.77-2.44,2.26-5.35,2.58-8.47,2.06-.76-.42-1.12-1.22-1.68-1.84-.26-.1-.52-.18-.79-.22Z"/>
      <path class="cls-81" d="M251.02,239.47c3.01-.35,6.01-.71,9.02-1.06,.3,0,.6,.02,.9,.08,1.54,2.07,2.34,4.35,1.91,6.96-3.48-.33-6.55-2.25-10.13-2.41-1.43-.06-2.98-1.49-1.7-3.57Z"/>
      <path class="cls-84" d="M243.95,236.56c-4.13-2.33-8.68-.34-12.94-1.26,5.4-.6,10.9-2.63,16,1.1-1.02,.06-2.04,.11-3.06,.17Z"/>
      <path class="cls-35" d="M256.9,143.94c-3.91-.46-.25-2.75-.96-3.98-.21-6.13,3.37-10.85,5.94-15.94,.44-2.85,.88-5.71,1.32-8.56,1.28,5.61,.5,11.09-.27,16.57-1.07,4.45-3.28,8.32-6.03,11.92Z"/>
      <path class="cls-32" d="M46.89,91.19c1.76-2.42-.96-4.02-1.11-6.1,0,0,0,.07,0,.07,2.3-2.49,4.23-5.26,5.98-8.15,6.29-7.89,13.96-14.09,22.91-18.73,2.66-.8,4.71-2.78,7.27-3.79,1.48-.59,2.89-1.68,4.46-.24-5.57,3.97-12.05,6.68-16.75,11.87-4.14,2.53-6.45,6.83-9.79,10.13-.85,.74-1.86,1.36-2.54,2.24-3.71,4.82-2.89,7.14,3.02,8.32,2.2,.44,4.48,.48,7.73,.8-3.77,2.53-6.3,5.27-10.27,5.55-1.68-3.74-3.88-4.51-6.99-2.34-.91,.63-1.5,1.8-2.89,1.43-.35-.35-.7-.7-1.05-1.05Z"/>
      <path class="cls-67" d="M86.41,54.25c-4.58-.59-7.36,4.05-11.73,4.03,10.41-6.84,21.78-11.33,33.94-13.88-5.05,2.28-10.1,4.55-15.16,6.83-2.35,1.01-4.7,2.02-7.05,3.02Z"/>
      <path class="cls-48" d="M47.94,92.24c2.74-5.15,6.01-6.46,10.97-3.67,3.78,2.13-.26,3.14-1.09,4.59-3.05,1.55-6.66,1.76-9.25,4.43-1.05-2.06-.54-3.72-.63-5.34Z"/>
      <path class="cls-30" d="M244.92,126.94c-2.34,.3-4.02,1.88-5.9,3.06-.66,.57-1.32,.61-1.98,.01,0-2.99-.02-5.97-.02-8.96,4.19-.13,7.46,.98,7.9,5.88Z"/>
      <path class="cls-185" d="M237.04,130.02c.66,0,1.32,0,1.98-.01-1.99,2.71-4.34,5.06-7.03,7.06-.28-.01-.56-.02-.84-.02-.02-.35-.04-.7-.06-1.05,2.37-1.61,4.32-3.64,5.96-5.98Z"/>
      <path class="cls-17" d="M248.21,140.26c-.02,4.52-2.09,8.29-4.54,11.86-6.78,9.92-15.77,17.32-26.36,22.84-1.13,.4-1.32-.16-1.13-1.11,.61-.38,1.22-.77,1.83-1.15,5.97-3.15,10.44-7.61,11.77-14.46,1.38-7.12,5.59-12.17,11.25-16.27,1.08-.58,1.7-1.72,2.79-2.28q3.47-1.3,4.39,.57Z"/>
      <path class="cls-14" d="M248.21,140.26c-1.59-.87-2.67,1.31-4.21,.7-1.34-1.44-3.07-1.52-4.89-1.54-.92,0-2.54,.58-2.13-1.49,1.77-2.32,4.32-3.58,6.83-4.79,1.69-.81,3.5-2.9,5.37-1.42,1.88,1.48,.21,3.69-.06,5.57-.02,1.08,.26,2.25-.92,2.96Z"/>
      <path class="cls-8" d="M236.99,137.93c1.58,1.52,3.57,.94,5.41,1.02,1.41,.06,2.12,.5,1.6,2.01-.99,.34-1.98,.68-2.97,1.01,.4-3.52-2.33-1.6-3.64-2-1.7-.52-2.76-.85-.4-2.04Z"/>
      <path class="cls-65" d="M220.09,168.81c-.02-3.53,2.62-5.15,4.99-6.96-1.44,2.48-1.26,6.12-4.99,6.96Z"/>
      <path class="cls-31" d="M54.66,122.89c2.01,2.17,4.1,.3,6.16,.14,1.65-.08,2.12,2.05,1.97,2.25-2.06,2.68,.83,4.49,1.04,6.71-2.88,.45-4.07-2.24-6.14-3.31-1.55-.8-2.7-2.54-4.81-1.86-.83,.04-2.08-.08-2-.83,.23-2.06,2.3-2.32,3.79-3.09Z"/>
      <path class="cls-174" d="M52.86,126.81c1.46-2.31,2.96-1.28,4.47-.06,2.16,1.75,4.33,3.49,6.49,5.23,.65,.34,1.31,.68,1.96,1.03,.32,1,.63,2,.95,3-2.79,.87-3.84-1.1-4.92-3.02-2.98-2.06-5.97-4.12-8.95-6.18Z"/>
      <path class="cls-64" d="M119.38,250.33c.09,4.03,.18,8.05,.28,12.08-1.33-1.1-.95-2.69-1.2-4.11-.38-2.16-1.5-3.79-3.9-3.54-2.54,.27-5.74,2.06-7.38,.11-1.42-1.69-.94-4.98-1.3-7.56,3.43-2.38,7.26-1.25,10.92-1.12,2.45,.09,2.05,2.53,2.58,4.14Z"/>
      <path class="cls-68" d="M119.38,250.33c-1.16-3.14-3.81-2.73-6.4-2.91-2.38-.16-4.77,1.01-7.11-.11-.02-1.29-.03-2.58-.05-3.86,3.36-.96,6.78-.3,10.17-.42,1.66-.06,2.71,.92,3.37,2.37,0,1.64,0,3.29,0,4.93Z"/>
      <path class="cls-71" d="M119.37,245.4c-4.29-2.23-9.29,.49-13.55-1.95-.01-1.31-.02-2.61-.04-3.92,4.49,.96,9.38-.87,13.61,1.94,0,1.31-.02,2.62-.03,3.92Z"/>
      <path class="cls-86" d="M119.4,241.48c-3.67-.03-7.39-.46-10.98,.05-2.21,.32-1.68-1.48-2.63-1.99,0-1.02-.01-2.05-.02-3.07,.27,.04,.55,.07,.83,.09,2.53,.63,5.04-.28,7.59-.06,1.97,.17,3.84,.34,5.19,1.99,0,1,.01,1.99,.02,2.99Z"/>
      <path class="cls-50" d="M87.52,241.43c0,2.67,0,5.33,0,8-4.35,3.58-9.07,2.19-13.77,1.04-.32-.02-.64-.04-.95-.06-7.02-3.29-14.29-.72-21.39-.58-4.15,.08-8.41-1.2-12.67,.6-2.37,1-1.51-1.73-1.83-2.94,1.31-2.97,4.06-2.46,6.42-2.45,8.9,0,17.8-.1,26.71-.03,2.67,.02,5.27-.2,7.8-1.04,2.75-1.59,6.79,1.5,8.9-2.45,.26-.04,.52-.07,.78-.09Z"/>
      <path class="cls-55" d="M73.76,250.47c4.47-1.96,9.19-.58,13.77-1.04,0,1.33,.01,2.65,.02,3.98-1.91,.32-3.84,.55-5.72,.99-3.81,.9-6.74,.18-8.07-3.93Z"/>
      <path class="cls-56" d="M241.05,75.2c-.38,.36-.76,.72-1.14,1.08-1.3-1.33-2.6-2.65-3.9-3.98-.34-.29-.69-.58-1.03-.87-1.27-1.1-2.55-2.21-3.82-3.31-.71-.58-1.42-1.15-2.12-1.73-3.71-3.84-8.12-6.68-12.84-9.09-4.44-3.38-9.75-4.97-14.77-7.15-6.39-.91-12.07-4.01-18.14-5.93-.96-.68-1.91-1.37-2.87-2.05,16.55,2.95,32.39,7.85,46.59,17.18,2.07,3.08,5.61,4.51,8.07,7.17,1.5,1.99,3.31,3.68,5.15,5.34,1.06,.96,1.89,1.9,.83,3.35Z"/>
      <path class="cls-101" d="M222.16,239.76c1.69-.56,3.38-1.13,5.07-1.69,3.64,.04,7.28,.05,10.91,.12q9.26,.18,10.89,9.32c-.34,1.9-.67,3.8-1,5.69-2.63,2.25-5.96,1.78-9.03,2.34-5.27-.55-10.69,.45-15.84-1.44-3.19-4.45-2.27-9.18-.95-13.94l-.06-.4Z"/>
      <path class="cls-51" d="M251.02,239.47c.12,2.22,1.36,2.59,3.3,2.17,3.74-.81,6.56,.58,8.53,3.81-.02,2.31-.03,4.62-.05,6.92-.85-3.82-3-5.63-7.14-5.57-5.54,.09-5.15-4.52-5.77-8.18,.38,.28,.76,.56,1.13,.84Z"/>
      <path class="cls-70" d="M78.74,245.48c-8.96,1.97-18.05,.77-27.08,1.09-4.93,.18-9.9-.54-14.75,.91-.3-.03-.61-.05-.91-.06-.03-1.31-.05-2.63-.08-3.94,10.34-.23,20.69,.33,31.03,.02,2.64-.08,5.27-.13,7.79-1.03h0c1.99,.12,4.09,.11,3.99,3Z"/>
      <path class="cls-139" d="M183.28,44.22c6.39,.93,12.34,3.18,18.14,5.93-.41,.4-.82,.8-1.23,1.21-5.74-2.14-11.7-3.73-16.91-7.13Z"/>
      <path class="cls-133" d="M190.99,248.48c0,1.67,0,3.34,.01,5-1.13,1.68-2.17,2.8-4.74,2.31-3.3-.63-6.79,.68-10.17-.3-1.96-1.3-4.37-1.95-5.88-3.92,1.38-1.75,3.04-1.55,5.16-1.48,5.23,.17,10.76,2.06,15.62-1.62Z"/>
      <path class="cls-79" d="M178.36,243.55c.31-.34,.63-.68,.94-1.03,3.44-2.49,7.13-2.35,10.93-1.03-.06,6.1-.09,5.29-5.95,5.49-5.97,.2-12.12-1.75-18,.9-.75,.34-1.91-.25-2.88-.41-2.04-.95-4.08-1.9-6.11-2.85,0,0,.27-.34,.27-.34,4.64-4.7,9.21-1.09,13.81,.1,.37,0,.75-.02,1.12-.03,1.93-.47,3.86-.92,5.88-.8Z"/>
      <path class="cls-53" d="M171.36,244.37c-4.6-.38-9.2-1.45-13.81-.1-1.26-.92-2.72-.79-4.15-.83-3.72,.22-7.49-.42-11.18,.58-1.63,.45-2.85-.18-3.81-1.48-.27-.02-.54-.05-.81-.1,.01-.33,.02-.66,.04-.99,6.37,.04,12.71-.07,19.07-.79,5.16-.59,10.52-.46,14.65,3.7Z"/>
      <path class="cls-102" d="M137.65,238.49c0-.98-.02-1.97-.03-2.95,4.93,.16,9.82,1.8,14.8,.48,2.27-.6,4.18,.19,5.97,1.51-6.88,.95-13.78,1.6-20.74,.97Z"/>
      <path class="cls-9" d="M178.36,243.55c-1.78,1.58-3.85,1.06-5.88,.8,.99-.54,1.97-1.08,2.96-1.63,1.11-.21,2.52-1.47,2.92,.83Z"/>
      <path class="cls-34" d="M208.07,244.37c2.2,1.36,4.55,1.49,7.1,1.26,2.59-.23,4.58,.72,3.84,4-.51,.96-1.02,1.92-1.53,2.88-2.47-3.88-10.13-1.37-10.13-8.26,.23,.09,.47,.13,.72,.12Z"/>
      <path class="cls-108" d="M181.26,238.55c-2.55-.81-2.4-3.04-2.67-5.05,3.87,.97,7.74-.48,11.61,.03-.02,1.65-.04,3.29-.06,4.94-2.93,2.67-5.89,2.86-8.88,.09Z"/>
      <path class="cls-89" d="M181.26,238.55c2.96-.03,5.92-.06,8.88-.09,.03,1.01,.06,2.02,.09,3.03-3.51,1.79-7.28,.76-10.93,1.03,0-1.65,1.29-2.66,1.97-3.97Z"/>
      <path class="cls-42" d="M137.53,247.46c.02-.67,.04-1.34,.06-2.01,1.95,1.87,4.34,2.22,6.9,2.03,2.19-.16,4.33-.08,5.83,1.91-.02,1.32-.04,2.64-.07,3.97-4.14,.71-8.28,1.45-11.75-1.93-.09-1.38,.17-2.84-.98-3.96Z"/>
      <path class="cls-126" d="M138.51,251.43c3.86,1.01,8.14-.56,11.75,1.93-.01,2.3-.03,4.61-.04,6.91-.91-3.59-3.41-5.39-6.81-4.32-4.86,1.53-4.98-1.18-4.9-4.53Z"/>
      <path class="cls-75" d="M119.57,41.4c3.64-1,7.28-2.01,10.92-3.01-2.9,3.7-7.14,2.49-10.92,3.01Z"/>
      <path class="cls-61" d="M106.49,184.72c-.24,0-.49,.02-.73,.02,.06-2.85-3.74-2.48-4.13-4.95,5.04,1.58,10.07,3.16,13.89,7.12-3.59,1.64-6.13-1.01-9.03-2.19Z"/>
      <path class="cls-109" d="M106.49,184.72c3.01,.73,6.02,1.46,9.03,2.19,2.43,.94,4.87,1.87,7.3,2.81-6.11,.51-11.7-.68-16.33-5Z"/>
      <path class="cls-18" d="M216.18,173.85c.38,.37,.75,.74,1.13,1.11-8.39,5.7-17.84,8.99-27.35,12.19-1.21,.41-2.23,.34-3.24-.41,1.19-.62,2.38-1.25,3.57-1.87,5.61-1.22,10.77-3.6,15.84-6.2,2.53-.93,4.92-2.14,7.06-3.81,1-.34,2-.68,3-1.02Z"/>
      <path class="cls-76" d="M186.78,186.7c-2.53,4.03-7.42,2.76-10.83,4.81-2.22,.36-4.45,.84-6.53-.53,2.43-1.51,5.25-1.58,7.93-2.19,0,0,.02,.04,.02,.04,3.14-.71,6.27-1.42,9.4-2.13Z"/>
      <path class="cls-59" d="M74.75,242.48c-2.52,3.7-6.48,1.99-9.66,2.14-8.85,.43-17.73,.08-26.6,.13-1.19,0-1.77-.74-2.57-1.26,0-.66-.01-1.33-.02-1.99,5,.73,10.29-.72,15.04,1.92,4.76-.96,9.56-.31,14.34-.37,2.83-.03,5.6-.42,8.4-.61,.35,.01,.71,.03,1.06,.04Z"/>
      <path class="cls-16" d="M104.53,184.71c-9.7-1.64-17.94-6.52-26.03-11.72-8.57-6.04-11.18-16.35-17.26-24.17-.77-.99-1.51-2.3,0-3.46,1.32-.23,2.64-.47,2.66,1.54,3.02,2.49,5.73,5.16,7.26,8.93,1.88,4.63,4.9,8.55,8.45,12.05,2.56,2.76,5.4,5.24,7.97,7.98,1.87,1.29,3.79,2.48,6.05,2.99,3.37,2.45,8.02,2.5,10.9,5.85Z"/>
      <path class="cls-98" d="M87.58,175.87c-3.56-1.76-7.27-3.37-7.97-7.98,.42-.04,.83-.08,1.25-.13,2.89,2.16,5.74,4.36,6.71,8.11Z"/>
      <path class="cls-85" d="M63.9,146.91c-.85-.84-1.92-1.03-3.05-1.05-2.97,.54-5.94-1.24-8.92-.02-2.57-2.79-2.91-6.49-4.05-9.87-.02-.99-.06-1.98-.05-2.97,.01-1.64-.26-3.57,1.58-4.33,1.64-.68,3.26,.24,4.57,1.22,2.39,1.79,4.85,3.4,7.73,4.28,.38,.32,.58,.73,.58,1.23-.11,.48-.37,.85-.76,1.13-3.24,1.11-5.47-1.45-8.57-2.28,3.78,1.63,6.98,3.92,11.08,3.08,2.06,1.32,2.26,3.03,.05,4.03-2.75,1.24-1.37,2.29-.3,3.57,.68,.65,1.37,1.31,2.05,1.96-.65,0-1.31,.01-1.96,.02Z"/>
      <path class="cls-100" d="M119.38,238.49c-2.94,0-5.88,.03-8.82,.01-1.62,0-3.39,.22-3.96-1.95,1.73-2.3,4.22-2.05,6.66-2.02,2.11,.03,4.25,.22,6.16-.99-.01,1.65-.03,3.29-.04,4.94Z"/>
      <path class="cls-3" d="M73.69,242.43c-7.5,2.28-15.16,.73-22.74,.99-.75-2.44,.89-1.2,1.8-1.19,6.36,.03,12.76,1.01,19.05-.7,.63,.3,1.26,.61,1.89,.91Z"/>
      <path class="cls-52" d="M61.7,136.08c.04-.36,.07-.72,.11-1.09,3.61-1.18,4.13,2.47,6.07,3.9,.3,.08,.58,.19,.85,.33-.06,1.44-.51,2.54-2.17,2.76-1.69,.22-2.61,1.23-2.74,2.94-2.42-.37-3.78-2.18-5.41-3.83,1.45-1.87,3.3-.75,4.91-.95,1.99-.25,1.4-1.21,.42-2.15-1.55,.28-2.17-.42-2.04-1.92Z"/>
      <path class="cls-54" d="M67.87,138.9c-2.33-.83-3.31-3.74-6.07-3.9-.03-.27-.06-.55-.08-.82,.03-.39,.06-.79,.09-1.18,1.64,1.01,3.28,2.01,4.92,3.02,.38,.96,.76,1.93,1.14,2.89Z"/>
      <path class="cls-73" d="M138.41,242.55c2.93,1.72,5.82-.54,8.75-.07,2.08,.33,4.34-.55,6.24,.97-3.93,1.96-8.27,.64-12.36,1.5-1.27,.27-2.31-.96-2.63-2.4Z"/>
      <path class="cls-106" d="M76.76,239.49c-.63-1.04-1.25-2.08-1.88-3.13,3.65-2.41,7.79-1.65,11.79-1.85-.02,.99-.04,1.98-.06,2.97-2.45,1.68-5.25,.85-7.9,1.07-.65,.31-1.3,.62-1.95,.93Z"/>
      <path class="cls-47" d="M78.74,245.48c-1.33-1-2.66-2-3.99-3,0-.32,.01-.64,.04-.95,3.98,0,7.96,0,11.95,0-.04,6.62-5.15,3.01-8,3.96Z"/>
      <path class="cls-102" d="M78.71,238.55c2.47-1.58,5.17-1.44,7.9-1.07-2.18,3.71-5.09,2.04-7.9,1.07Z"/>
      <path class="cls-130" d="M177.36,188.79c-2.48,1.32-5.23,1.67-7.93,2.19,.02-.37,.03-.74,.05-1.1,2.66-.14,5.02-2.39,7.87-1.09Z"/>
      <path class="cls-167" d="M241.05,75.2c-2.33-2.64-4.67-5.28-7-7.92,.26-2.24,1.48-1.73,2.79-.97,1.72,1.48,3.44,2.96,5.16,4.43,2.57,2.54,5.14,5.08,7.72,7.62,3.29,2.15,5.37,5.11,6.07,9,1.04,2.31,2.08,4.63,3.13,6.94-.35,3.48,2.04,6.4,2.01,9.82-.24,.98-1.29,1.65-1.42,.52-.58-5.02-5.2-6.91-7.6-10.48-.6-1.36-1.2-2.72-1.79-4.08-1.5-5.89-5.35-10.34-9.06-14.88Z"/>
      <path class="cls-46" d="M261.88,124.01c-.69,5.79-2.48,11.18-5.94,15.94-3.62-.88-4.47-3.06-3.65-6.6,1.2-5.23-.08-6.77-5.34-7.35-.34-1.08-.68-2.15-1.07-3.38,2.97,0,4.97,1.13,6.99,3.47,3.82,4.44,6.14-.63,9.01-2.07Z"/>
      <path class="cls-138" d="M236.83,66.31c-1.04,.02-2.07,.05-2.79,.97-2.47-2-4.97-3.98-7.41-6.02-.88-.74-1.23-1.56,.37-1.92,3.61,1.85,7.12,3.84,9.83,6.96Z"/>
      <path class="cls-111" d="M255.78,87.37c-2.02-3-4.05-6-6.07-9,.47-.45,.93-.89,1.4-1.34,2.67,2.33,3.91,5.64,5.78,8.51-.37,.61-.74,1.22-1.1,1.83Z"/>
      <path class="cls-41" d="M51.77,77.01c-.8,3.59-2.52,6.51-5.98,8.15,.77-1.6,1.55-3.21,2.32-4.81,1.22-1.11,2.44-2.23,3.66-3.34Z"/>
      <path class="cls-120" d="M44.9,133.98c.82,1.6,.14,3.79,1.96,5,1.42,4.9,2.72,9.84,5.97,13.96-2.12,3.33-3.14,.04-4.05-.91-2.46-2.56-3.75-6.13-6.96-8.08-1.5-1.69-2.39-3.72-3.14-5.82,1.13-2.68-2.05-5.5,.26-8.14,2.35,.78,1.86,5.83,5.96,3.98Z"/>
      <path class="cls-74" d="M38.93,130c-.12,2.71,3.28,5.53-.26,8.14-1.84-3.13-3.17-6.45-3.77-10.05,0-4.19,0-8.38,0-12.58,2.59,4.61,1.87,9.9,4.03,14.49Z"/>
      <path class="cls-12" d="M51.93,145.84c1.5-3.45,4.41-3.44,8.92,.02,7.42,5.36,7.74,15.34,13.97,21.61,1.35,1.36,4.65,2.31,3.68,5.53-11.3-6.66-20.68-15.2-26.57-27.16Z"/>
      <path class="cls-128" d="M222.22,240.16c.19,4.66-1.02,9.41,.95,13.94-3.47-3.09-3.87-9.02-.95-13.94Z"/>
      <path class="cls-155" d="M220.11,121.05c-3.98-.01-7.96-.03-11.94-.04-1.56-1.34-3.46-.94-5.25-.94-33.65-.02-67.31-.03-100.96-.02-1.8,0-3.67-.31-5.32,.78-6.73,0-13.46,0-20.98,0,1.78-.72,2.93-1.18,4.09-1.65,44.79-.67,89.59-.72,134.38-.12,1.69,1.58,4.82-1.21,5.98,1.98Z"/>
      <path class="cls-150" d="M220.11,121.05c-1.61-1.8-4.36-.2-5.98-1.98,2.33,.03,4.65,.06,6.98,.09,1.17,.45,2.35,.91,4.89,1.9h-5.9Z"/>
      <path class="cls-19" d="M61.7,136.08c.68,.64,1.36,1.28,2.04,1.92-3.67,1.24-11.64-.97-13.9-3.82-.55-.69-1-1.45-.5-2.23,.79-1.23,2.05-1.04,3.07-.45,3,1.72,5.97,3.5,9.28,4.58Z"/>
    </g>
  </g>
</svg>